M48
;DRILL file {KiCad 4.0.4-stable} date 12/22/17 17:36:02
;FORMAT={-:-/ absolute / metric / decimal}
FMAT,2
METRIC,TZ
T1C0.400
T2C0.762
T3C1.000
%
G90
G05
M71
T1
X76.2Y-59.7
X84.2Y-38.3
X87.3Y-39.5
X109.5Y-46.7
X109.5Y-49.
X111.6Y-46.9
X111.6Y-48.7
X114.7Y-57.3
X117.1Y-59.3
X118.84Y-57.15
X119.Y-60.8
X120.Y-60.
X121.Y-61.4
X121.7Y-60.7
X129.2Y-59.7
X130.3Y-61.2
X131.Y-63.3
X136.2Y-50.7
X136.9Y-43.
X139.Y-47.1
X139.Y-68.4
X139.7Y-44.1
X140.Y-62.6
X140.5Y-59.8
X141.7Y-48.7
X142.5Y-49.5
X142.6Y-50.8
X144.4Y-42.7
X148.5Y-44.8
X164.3Y-52.7
X167.2Y-52.3
X167.7Y-38.
X168.3Y-51.1
X170.4Y-59.9
X171.5Y-58.2
X172.2Y-42.6
X172.2Y-52.6
X172.3Y-46.
X173.4Y-47.7
X174.7Y-43.5
X174.7Y-54.2
X174.9Y-49.7
X176.3Y-44.9
X176.6Y-37.7
X177.07Y-66.04
X177.9Y-44.9
X188.6Y-50.6
X188.6Y-66.
X188.7Y-47.
X189.Y-39.5
X189.Y-58.6
X189.1Y-43.4
X189.2Y-54.7
X207.2Y-66.6
X208.5Y-63.4
X209.2Y-63.9
X211.3Y-68.3
T2
X123.19Y-40.64
X123.19Y-55.88
X124.46Y-44.45
X124.46Y-46.99
X124.46Y-49.53
X124.46Y-52.07
X125.73Y-40.64
X125.73Y-55.88
X128.27Y-40.64
X128.27Y-55.88
X130.81Y-40.64
X130.81Y-55.88
X133.35Y-40.64
X133.35Y-55.88
X135.89Y-40.64
X135.89Y-55.88
X138.43Y-40.64
X138.43Y-55.88
X140.97Y-40.64
X140.97Y-55.88
X143.51Y-40.64
X143.51Y-55.88
X146.05Y-40.64
X146.05Y-55.88
X148.59Y-40.64
X148.59Y-55.88
X151.13Y-40.64
X151.13Y-55.88
X153.67Y-40.64
X153.67Y-55.88
X156.21Y-40.64
X156.21Y-55.88
X158.75Y-40.64
X158.75Y-55.88
X161.29Y-40.64
X161.29Y-55.88
X163.83Y-40.64
X163.83Y-55.88
X166.37Y-40.64
X166.37Y-55.88
X168.91Y-40.64
X168.91Y-55.88
X171.45Y-40.64
X171.45Y-55.88
T3
X64.77Y-71.12
X64.77Y-73.66
X67.31Y-71.12
X67.31Y-73.66
X69.85Y-71.12
X69.85Y-73.66
X72.39Y-71.12
X72.39Y-73.66
X74.93Y-71.12
X74.93Y-73.66
X77.47Y-71.12
X77.47Y-73.66
X80.01Y-71.12
X80.01Y-73.66
X114.3Y-40.64
X114.3Y-43.18
X114.3Y-45.72
X143.51Y-63.5
X146.05Y-63.5
X148.59Y-63.5
X151.13Y-63.5
X215.9Y-71.12
X215.9Y-73.66
X218.44Y-71.12
X218.44Y-73.66
X220.98Y-71.12
X220.98Y-73.66
X223.52Y-71.12
X223.52Y-73.66
X226.06Y-71.12
X226.06Y-73.66
X228.6Y-71.12
X228.6Y-73.66
X231.14Y-71.12
X231.14Y-73.66
T0
M30
