G04 #@! TF.FileFunction,Copper,L1,Top,Signal*
%FSLAX46Y46*%
G04 Gerber Fmt 4.6, Leading zero omitted, Abs format (unit mm)*
G04 Created by KiCad (PCBNEW 4.0.4-stable) date 12/22/17 17:36:25*
%MOMM*%
%LPD*%
G01*
G04 APERTURE LIST*
%ADD10C,0.100000*%
%ADD11R,2.000000X1.600000*%
%ADD12R,2.000000X1.700000*%
%ADD13R,1.700000X1.700000*%
%ADD14O,1.700000X1.700000*%
%ADD15C,1.524000*%
%ADD16R,1.800000X1.800000*%
%ADD17O,1.800000X1.800000*%
%ADD18C,0.600000*%
%ADD19C,0.250000*%
%ADD20C,0.254000*%
G04 APERTURE END LIST*
D10*
D11*
X114840000Y-54610000D03*
X118840000Y-54610000D03*
X114840000Y-52070000D03*
X118840000Y-52070000D03*
D12*
X177070000Y-39370000D03*
X181070000Y-39370000D03*
X177070000Y-43180000D03*
X181070000Y-43180000D03*
X177070000Y-46990000D03*
X181070000Y-46990000D03*
X177070000Y-50800000D03*
X181070000Y-50800000D03*
X177070000Y-54610000D03*
X181070000Y-54610000D03*
X177070000Y-58420000D03*
X181070000Y-58420000D03*
D13*
X64770000Y-73660000D03*
D14*
X64770000Y-71120000D03*
X67310000Y-73660000D03*
X67310000Y-71120000D03*
X69850000Y-73660000D03*
X69850000Y-71120000D03*
X72390000Y-73660000D03*
X72390000Y-71120000D03*
X74930000Y-73660000D03*
X74930000Y-71120000D03*
X77470000Y-73660000D03*
X77470000Y-71120000D03*
X80010000Y-73660000D03*
X80010000Y-71120000D03*
D13*
X215900000Y-73660000D03*
D14*
X215900000Y-71120000D03*
X218440000Y-73660000D03*
X218440000Y-71120000D03*
X220980000Y-73660000D03*
X220980000Y-71120000D03*
X223520000Y-73660000D03*
X223520000Y-71120000D03*
X226060000Y-73660000D03*
X226060000Y-71120000D03*
X228600000Y-73660000D03*
X228600000Y-71120000D03*
X231140000Y-73660000D03*
X231140000Y-71120000D03*
D13*
X143510000Y-63500000D03*
D14*
X146050000Y-63500000D03*
X148590000Y-63500000D03*
X151130000Y-63500000D03*
D12*
X114840000Y-66040000D03*
X118840000Y-66040000D03*
X118840000Y-57150000D03*
X114840000Y-57150000D03*
X184690000Y-66040000D03*
X188690000Y-66040000D03*
X177070000Y-66040000D03*
X181070000Y-66040000D03*
X188690000Y-39370000D03*
X184690000Y-39370000D03*
X188690000Y-43180000D03*
X184690000Y-43180000D03*
X188690000Y-46990000D03*
X184690000Y-46990000D03*
X188690000Y-50800000D03*
X184690000Y-50800000D03*
X188690000Y-54610000D03*
X184690000Y-54610000D03*
X188690000Y-58420000D03*
X184690000Y-58420000D03*
D15*
X123190000Y-55880000D03*
X125730000Y-55880000D03*
X128270000Y-55880000D03*
X130810000Y-55880000D03*
X133350000Y-55880000D03*
X135890000Y-55880000D03*
X138430000Y-55880000D03*
X140970000Y-55880000D03*
X143510000Y-55880000D03*
X146050000Y-55880000D03*
X148590000Y-55880000D03*
X151130000Y-55880000D03*
X153670000Y-55880000D03*
X156210000Y-55880000D03*
X158750000Y-55880000D03*
X161290000Y-55880000D03*
X163830000Y-55880000D03*
X166370000Y-55880000D03*
X168910000Y-55880000D03*
X171450000Y-55880000D03*
X123190000Y-40640000D03*
X125730000Y-40640000D03*
X128270000Y-40640000D03*
X130810000Y-40640000D03*
X133350000Y-40640000D03*
X135890000Y-40640000D03*
X138430000Y-40640000D03*
X140970000Y-40640000D03*
X143510000Y-40640000D03*
X146050000Y-40640000D03*
X148590000Y-40640000D03*
X151130000Y-40640000D03*
X153670000Y-40640000D03*
X156210000Y-40640000D03*
X158750000Y-40640000D03*
X161290000Y-40640000D03*
X163830000Y-40640000D03*
X166370000Y-40640000D03*
X168910000Y-40640000D03*
X171450000Y-40640000D03*
X124460000Y-52070000D03*
X124460000Y-49530000D03*
X124460000Y-46990000D03*
X124460000Y-44450000D03*
D16*
X114300000Y-45720000D03*
D17*
X114300000Y-43180000D03*
X114300000Y-40640000D03*
D18*
X117100000Y-59300000D03*
X109500000Y-49000000D03*
X109500000Y-46700000D03*
X87300000Y-39500000D03*
X84200000Y-38300000D03*
X142600000Y-50800000D03*
X136200000Y-50700000D03*
X111600000Y-46900000D03*
X111600000Y-48700000D03*
X189200000Y-54700000D03*
X174700000Y-43500000D03*
X139000000Y-68400000D03*
X131000000Y-63300000D03*
X130300000Y-61200000D03*
X129200000Y-59700000D03*
X76200000Y-59700000D03*
X120000000Y-60000000D03*
X121700000Y-60700000D03*
X211300000Y-68300000D03*
X207200000Y-66600000D03*
X174700000Y-54200000D03*
X172200000Y-52600000D03*
X173400000Y-47700000D03*
X172300000Y-46000000D03*
X172200000Y-42600000D03*
X167700000Y-38000000D03*
X174900000Y-49700000D03*
X141700000Y-48700000D03*
X139000000Y-47100000D03*
X177900000Y-44900000D03*
X176300000Y-44900000D03*
X148500000Y-44800000D03*
X144400000Y-42700000D03*
X119000000Y-60800000D03*
X121000000Y-61400000D03*
X114700000Y-57300000D03*
X209200000Y-63900000D03*
X208500000Y-63400000D03*
X140500000Y-59800000D03*
X136900000Y-43000000D03*
X139700000Y-44100000D03*
X142500000Y-49500000D03*
X140000000Y-62600000D03*
X118840000Y-57150000D03*
X188600000Y-66000000D03*
X177070000Y-66040000D03*
X176600000Y-37700000D03*
X189000000Y-39500000D03*
X189100000Y-43400000D03*
X168300000Y-51100000D03*
X167200000Y-52300000D03*
X188700000Y-47000000D03*
X164300000Y-52700000D03*
X170400000Y-59900000D03*
X171500000Y-58200000D03*
X188600000Y-50600000D03*
X189000000Y-58600000D03*
D19*
X114840000Y-54610000D02*
X116810000Y-54610000D01*
X116900000Y-59100000D02*
X117100000Y-59300000D01*
X116900000Y-54700000D02*
X116900000Y-59100000D01*
X116810000Y-54610000D02*
X116900000Y-54700000D01*
X114840000Y-52070000D02*
X114840000Y-54610000D01*
X110450000Y-52850000D02*
X110850000Y-52850000D01*
X111630000Y-52070000D02*
X114840000Y-52070000D01*
X110850000Y-52850000D02*
X111630000Y-52070000D01*
X114300000Y-40640000D02*
X112060000Y-40640000D01*
X112000000Y-54400000D02*
X114630000Y-54400000D01*
X109500000Y-51900000D02*
X110450000Y-52850000D01*
X110450000Y-52850000D02*
X112000000Y-54400000D01*
X109500000Y-49000000D02*
X109500000Y-51900000D01*
X109500000Y-43200000D02*
X109500000Y-46700000D01*
X112060000Y-40640000D02*
X109500000Y-43200000D01*
X114630000Y-54400000D02*
X114840000Y-54610000D01*
X64770000Y-73660000D02*
X62960000Y-73660000D01*
X113400000Y-39000000D02*
X114300000Y-39900000D01*
X87800000Y-39000000D02*
X113400000Y-39000000D01*
X87300000Y-39500000D02*
X87800000Y-39000000D01*
X65700000Y-56800000D02*
X84200000Y-38300000D01*
X65700000Y-67200000D02*
X65700000Y-56800000D01*
X62800000Y-70100000D02*
X65700000Y-67200000D01*
X62800000Y-73500000D02*
X62800000Y-70100000D01*
X62960000Y-73660000D02*
X62800000Y-73500000D01*
X114300000Y-39900000D02*
X114300000Y-40640000D01*
X231140000Y-73660000D02*
X231140000Y-71120000D01*
X177070000Y-39370000D02*
X177070000Y-38630000D01*
X177070000Y-38630000D02*
X178200000Y-37500000D01*
X231140000Y-61140000D02*
X231140000Y-71120000D01*
X230500000Y-60500000D02*
X231140000Y-61140000D01*
X230500000Y-49800000D02*
X230500000Y-60500000D01*
X218200000Y-37500000D02*
X230500000Y-49800000D01*
X178200000Y-37500000D02*
X218200000Y-37500000D01*
X167800000Y-59300000D02*
X169200000Y-59300000D01*
X171450000Y-57050000D02*
X171450000Y-55880000D01*
X169200000Y-59300000D02*
X171450000Y-57050000D01*
X148590000Y-63500000D02*
X148590000Y-63590000D01*
X148590000Y-63590000D02*
X150100000Y-65100000D01*
X167800000Y-56990000D02*
X168910000Y-55880000D01*
X167800000Y-59300000D02*
X167800000Y-59300000D01*
X167800000Y-59300000D02*
X167800000Y-56990000D01*
X162900000Y-64200000D02*
X167800000Y-59300000D01*
X153300000Y-64200000D02*
X162900000Y-64200000D01*
X152400000Y-65100000D02*
X153300000Y-64200000D01*
X150100000Y-65100000D02*
X152400000Y-65100000D01*
X119100000Y-49540000D02*
X120540000Y-49540000D01*
X148590000Y-62390000D02*
X148590000Y-63500000D01*
X147600000Y-61400000D02*
X148590000Y-62390000D01*
X146700000Y-61400000D02*
X147600000Y-61400000D01*
X144800000Y-59500000D02*
X146700000Y-61400000D01*
X144800000Y-55200000D02*
X144800000Y-59500000D01*
X144600000Y-55000000D02*
X144800000Y-55200000D01*
X144600000Y-52800000D02*
X144600000Y-55000000D01*
X142600000Y-50800000D02*
X144600000Y-52800000D01*
X136100000Y-50800000D02*
X136200000Y-50700000D01*
X121800000Y-50800000D02*
X136100000Y-50800000D01*
X120540000Y-49540000D02*
X121800000Y-50800000D01*
X121150000Y-52250000D02*
X121150000Y-51350000D01*
X119340000Y-49540000D02*
X119100000Y-49540000D01*
X119100000Y-49540000D02*
X118840000Y-49540000D01*
X121150000Y-51350000D02*
X119340000Y-49540000D01*
X114300000Y-43180000D02*
X112820000Y-43180000D01*
X112820000Y-43180000D02*
X111600000Y-44400000D01*
X111600000Y-44400000D02*
X111600000Y-46900000D01*
X111600000Y-48700000D02*
X111900000Y-48400000D01*
X111900000Y-48400000D02*
X116400000Y-48400000D01*
X116400000Y-48400000D02*
X116600000Y-48600000D01*
X116600000Y-48600000D02*
X117900000Y-48600000D01*
X117900000Y-48600000D02*
X118840000Y-49540000D01*
X118840000Y-49540000D02*
X118840000Y-52070000D01*
X121490000Y-54610000D02*
X121490000Y-52590000D01*
X121490000Y-52590000D02*
X121150000Y-52250000D01*
X121150000Y-52250000D02*
X120970000Y-52070000D01*
X120970000Y-52070000D02*
X118840000Y-52070000D01*
X80010000Y-71120000D02*
X80220000Y-71120000D01*
X80220000Y-71120000D02*
X83400000Y-74300000D01*
X121490000Y-54610000D02*
X118840000Y-54610000D01*
X121500000Y-54600000D02*
X121490000Y-54610000D01*
X121500000Y-59500000D02*
X121500000Y-54600000D01*
X119400000Y-61600000D02*
X121500000Y-59500000D01*
X119100000Y-61600000D02*
X119400000Y-61600000D01*
X117400000Y-63300000D02*
X119100000Y-61600000D01*
X106500000Y-63300000D02*
X117400000Y-63300000D01*
X104300000Y-65500000D02*
X106500000Y-63300000D01*
X97700000Y-65500000D02*
X104300000Y-65500000D01*
X94700000Y-68500000D02*
X97700000Y-65500000D01*
X94700000Y-73200000D02*
X94700000Y-68500000D01*
X93600000Y-74300000D02*
X94700000Y-73200000D01*
X83400000Y-74300000D02*
X93600000Y-74300000D01*
X80010000Y-73660000D02*
X80010000Y-71120000D01*
X171450000Y-55880000D02*
X168910000Y-55880000D01*
X177070000Y-50800000D02*
X172900000Y-50800000D01*
X172900000Y-50800000D02*
X171450000Y-52250000D01*
X171450000Y-52250000D02*
X171450000Y-55880000D01*
X177070000Y-54610000D02*
X177070000Y-58420000D01*
X177070000Y-50800000D02*
X177070000Y-54610000D01*
X177070000Y-46990000D02*
X177070000Y-50800000D01*
X177070000Y-43180000D02*
X177070000Y-46990000D01*
X177070000Y-39370000D02*
X177070000Y-43180000D01*
X114300000Y-43180000D02*
X121920000Y-43180000D01*
X125400000Y-42000000D02*
X125400000Y-40970000D01*
X125000000Y-42400000D02*
X125400000Y-42000000D01*
X122700000Y-42400000D02*
X125000000Y-42400000D01*
X121920000Y-43180000D02*
X122700000Y-42400000D01*
X125400000Y-40970000D02*
X125730000Y-40640000D01*
X181070000Y-39370000D02*
X184690000Y-39370000D01*
X181070000Y-43180000D02*
X184690000Y-43180000D01*
X181070000Y-46990000D02*
X184690000Y-46990000D01*
X181070000Y-50800000D02*
X184690000Y-50800000D01*
X181070000Y-54610000D02*
X184690000Y-54610000D01*
X181070000Y-58420000D02*
X184690000Y-58420000D01*
X166370000Y-40640000D02*
X166540000Y-40640000D01*
X166540000Y-40640000D02*
X169400000Y-43500000D01*
X189200000Y-54700000D02*
X189110000Y-54610000D01*
X169400000Y-43500000D02*
X174700000Y-43500000D01*
X189110000Y-54610000D02*
X188690000Y-54610000D01*
X64770000Y-71120000D02*
X64770000Y-70030000D01*
X166100000Y-38700000D02*
X166100000Y-40370000D01*
X165100000Y-37700000D02*
X166100000Y-38700000D01*
X128300000Y-37700000D02*
X165100000Y-37700000D01*
X86200000Y-37700000D02*
X128300000Y-37700000D01*
X66600000Y-57300000D02*
X86200000Y-37700000D01*
X66600000Y-68200000D02*
X66600000Y-57300000D01*
X64770000Y-70030000D02*
X66600000Y-68200000D01*
X166100000Y-40370000D02*
X166370000Y-40640000D01*
X128400000Y-59500000D02*
X129000000Y-59500000D01*
X218100000Y-74700000D02*
X218100000Y-74000000D01*
X217400000Y-75400000D02*
X218100000Y-74700000D01*
X213700000Y-75400000D02*
X217400000Y-75400000D01*
X212100000Y-73800000D02*
X213700000Y-75400000D01*
X212100000Y-65700000D02*
X212100000Y-73800000D01*
X208500000Y-62100000D02*
X212100000Y-65700000D01*
X175700000Y-62100000D02*
X208500000Y-62100000D01*
X173800000Y-64000000D02*
X175700000Y-62100000D01*
X173800000Y-68200000D02*
X173800000Y-64000000D01*
X172000000Y-70000000D02*
X173800000Y-68200000D01*
X140600000Y-70000000D02*
X172000000Y-70000000D01*
X139000000Y-68400000D02*
X140600000Y-70000000D01*
X131000000Y-61900000D02*
X131000000Y-63300000D01*
X130300000Y-61200000D02*
X131000000Y-61900000D01*
X129000000Y-59500000D02*
X129200000Y-59700000D01*
X218100000Y-74000000D02*
X218440000Y-73660000D01*
X76200000Y-59700000D02*
X76600000Y-60100000D01*
X76600000Y-60100000D02*
X119900000Y-60100000D01*
X119900000Y-60100000D02*
X120000000Y-60000000D01*
X121700000Y-60700000D02*
X121900000Y-60900000D01*
X121900000Y-60900000D02*
X127000000Y-60900000D01*
X127000000Y-60900000D02*
X128400000Y-59500000D01*
X128400000Y-59500000D02*
X128400000Y-56010000D01*
X128400000Y-56010000D02*
X128270000Y-55880000D01*
X67310000Y-71120000D02*
X67310000Y-57790000D01*
X133350000Y-39550000D02*
X133350000Y-40640000D01*
X132100000Y-38300000D02*
X133350000Y-39550000D01*
X86800000Y-38300000D02*
X132100000Y-38300000D01*
X67310000Y-57790000D02*
X86800000Y-38300000D01*
X211200000Y-68200000D02*
X211300000Y-68300000D01*
X208800000Y-68200000D02*
X211200000Y-68200000D01*
X207200000Y-66600000D02*
X208800000Y-68200000D01*
X173800000Y-54200000D02*
X174700000Y-54200000D01*
X172200000Y-52600000D02*
X173800000Y-54200000D01*
X173400000Y-47100000D02*
X173400000Y-47700000D01*
X172300000Y-46000000D02*
X173400000Y-47100000D01*
X169136398Y-42600000D02*
X172200000Y-42600000D01*
X167818199Y-41281801D02*
X169136398Y-42600000D01*
X167818199Y-41018199D02*
X167818199Y-41281801D01*
X167600000Y-40800000D02*
X167818199Y-41018199D01*
X167600000Y-38100000D02*
X167600000Y-40800000D01*
X167700000Y-38000000D02*
X167600000Y-38100000D01*
X132200000Y-44400000D02*
X136300000Y-44400000D01*
X173800000Y-48600000D02*
X174900000Y-49700000D01*
X141800000Y-48600000D02*
X173800000Y-48600000D01*
X141700000Y-48700000D02*
X141800000Y-48600000D01*
X136300000Y-44400000D02*
X139000000Y-47100000D01*
X135890000Y-40640000D02*
X135890000Y-40710000D01*
X135890000Y-40710000D02*
X132200000Y-44400000D01*
X132200000Y-44400000D02*
X126800000Y-44400000D01*
X126800000Y-44400000D02*
X125500000Y-45700000D01*
X125500000Y-45700000D02*
X118100000Y-45700000D01*
X118100000Y-45700000D02*
X116600000Y-47200000D01*
X116600000Y-47200000D02*
X116200000Y-47200000D01*
X116200000Y-47200000D02*
X115700000Y-47700000D01*
X115700000Y-47700000D02*
X78800000Y-47700000D01*
X78800000Y-47700000D02*
X67900000Y-58600000D01*
X67900000Y-58600000D02*
X67900000Y-68200000D01*
X67900000Y-68200000D02*
X69200000Y-69500000D01*
X69200000Y-69500000D02*
X69200000Y-70470000D01*
X69200000Y-70470000D02*
X69850000Y-71120000D01*
X223520000Y-71120000D02*
X223520000Y-70380000D01*
X223520000Y-70380000D02*
X226500000Y-67400000D01*
X226500000Y-67400000D02*
X229400000Y-67400000D01*
X229400000Y-67400000D02*
X230500000Y-66300000D01*
X230500000Y-66300000D02*
X230500000Y-61500000D01*
X230500000Y-61500000D02*
X229700000Y-60700000D01*
X229700000Y-60700000D02*
X229700000Y-50100000D01*
X229700000Y-50100000D02*
X217800000Y-38200000D01*
X217800000Y-38200000D02*
X197100000Y-38200000D01*
X197100000Y-38200000D02*
X190200000Y-45100000D01*
X190200000Y-45100000D02*
X178100000Y-45100000D01*
X178100000Y-45100000D02*
X177900000Y-44900000D01*
X176300000Y-44900000D02*
X176200000Y-44800000D01*
X176200000Y-44800000D02*
X148500000Y-44800000D01*
X144400000Y-42700000D02*
X144000000Y-42300000D01*
X144000000Y-42300000D02*
X141900000Y-42300000D01*
X141900000Y-42300000D02*
X140970000Y-41370000D01*
X140970000Y-41370000D02*
X140970000Y-40640000D01*
X140970000Y-40640000D02*
X140970000Y-47030000D01*
X72390000Y-65110000D02*
X72390000Y-71120000D01*
X76800000Y-60700000D02*
X72390000Y-65110000D01*
X118900000Y-60700000D02*
X76800000Y-60700000D01*
X119000000Y-60800000D02*
X118900000Y-60700000D01*
X128700000Y-61400000D02*
X121000000Y-61400000D01*
X132000000Y-58100000D02*
X128700000Y-61400000D01*
X132000000Y-54900000D02*
X132000000Y-58100000D01*
X132800000Y-54100000D02*
X132000000Y-54900000D01*
X134000000Y-54100000D02*
X132800000Y-54100000D01*
X139000000Y-49100000D02*
X134000000Y-54100000D01*
X139000000Y-49000000D02*
X139000000Y-49100000D01*
X140970000Y-47030000D02*
X139000000Y-49000000D01*
X114840000Y-66040000D02*
X106460000Y-66040000D01*
X74930000Y-74730000D02*
X74930000Y-73660000D01*
X75800000Y-75600000D02*
X74930000Y-74730000D01*
X94400000Y-75600000D02*
X75800000Y-75600000D01*
X96300000Y-73700000D02*
X94400000Y-75600000D01*
X96300000Y-68600000D02*
X96300000Y-73700000D01*
X97600000Y-67300000D02*
X96300000Y-68600000D01*
X105200000Y-67300000D02*
X97600000Y-67300000D01*
X106460000Y-66040000D02*
X105200000Y-67300000D01*
X77470000Y-73660000D02*
X77470000Y-74270000D01*
X77470000Y-74270000D02*
X78300000Y-75100000D01*
X78300000Y-75100000D02*
X94100000Y-75100000D01*
X94100000Y-75100000D02*
X95600000Y-73600000D01*
X95600000Y-73600000D02*
X95600000Y-68600000D01*
X95600000Y-68600000D02*
X97500000Y-66700000D01*
X97500000Y-66700000D02*
X104800000Y-66700000D01*
X104800000Y-66700000D02*
X107200000Y-64300000D01*
X107200000Y-64300000D02*
X136900000Y-64300000D01*
X136900000Y-64300000D02*
X139700000Y-61500000D01*
X139700000Y-61500000D02*
X139700000Y-49600000D01*
X139700000Y-49600000D02*
X144700000Y-44600000D01*
X144700000Y-44600000D02*
X147200000Y-44600000D01*
X147200000Y-44600000D02*
X148590000Y-43210000D01*
X148590000Y-43210000D02*
X148590000Y-40640000D01*
X114700000Y-57300000D02*
X114840000Y-57160000D01*
X114840000Y-57160000D02*
X114840000Y-57150000D01*
X184690000Y-66040000D02*
X184690000Y-64610000D01*
X208900000Y-64200000D02*
X209200000Y-63900000D01*
X207900000Y-64200000D02*
X208900000Y-64200000D01*
X207000000Y-63300000D02*
X207900000Y-64200000D01*
X186000000Y-63300000D02*
X207000000Y-63300000D01*
X184690000Y-64610000D02*
X186000000Y-63300000D01*
X181070000Y-66040000D02*
X181070000Y-65730000D01*
X181070000Y-65730000D02*
X183300000Y-63500000D01*
X183300000Y-63500000D02*
X183300000Y-63300000D01*
X183300000Y-63300000D02*
X183800000Y-62800000D01*
X183800000Y-62800000D02*
X207900000Y-62800000D01*
X207900000Y-62800000D02*
X208500000Y-63400000D01*
X143510000Y-63500000D02*
X143510000Y-61610000D01*
X140970000Y-59070000D02*
X140970000Y-55880000D01*
X143510000Y-61610000D02*
X140970000Y-59070000D01*
X146050000Y-63500000D02*
X146050000Y-65250000D01*
X140500000Y-60300000D02*
X140500000Y-59800000D01*
X141200000Y-61000000D02*
X140500000Y-60300000D01*
X141200000Y-64800000D02*
X141200000Y-61000000D01*
X142700000Y-66300000D02*
X141200000Y-64800000D01*
X145000000Y-66300000D02*
X142700000Y-66300000D01*
X146050000Y-65250000D02*
X145000000Y-66300000D01*
X151130000Y-63500000D02*
X162600000Y-63500000D01*
X166370000Y-59730000D02*
X166370000Y-55880000D01*
X162600000Y-63500000D02*
X166370000Y-59730000D01*
X136900000Y-43000000D02*
X138000000Y-44100000D01*
X138000000Y-44100000D02*
X139700000Y-44100000D01*
X142500000Y-49500000D02*
X143200000Y-50200000D01*
X143200000Y-50200000D02*
X162700000Y-50200000D01*
X162700000Y-50200000D02*
X166370000Y-53870000D01*
X166370000Y-53870000D02*
X166370000Y-55880000D01*
X118840000Y-66040000D02*
X136960000Y-66040000D01*
X140000000Y-63000000D02*
X140000000Y-62600000D01*
X136960000Y-66040000D02*
X140000000Y-63000000D01*
X188600000Y-66000000D02*
X188640000Y-66040000D01*
X188640000Y-66040000D02*
X188690000Y-66040000D01*
X168910000Y-40640000D02*
X169260000Y-40640000D01*
X169260000Y-40640000D02*
X172200000Y-37700000D01*
X172200000Y-37700000D02*
X176600000Y-37700000D01*
X189000000Y-39500000D02*
X188870000Y-39370000D01*
X188870000Y-39370000D02*
X188690000Y-39370000D01*
X189100000Y-43400000D02*
X188880000Y-43180000D01*
X168300000Y-51200000D02*
X168300000Y-51100000D01*
X167200000Y-52300000D02*
X168300000Y-51200000D01*
X188880000Y-43180000D02*
X188690000Y-43180000D01*
X188700000Y-47000000D02*
X188690000Y-46990000D01*
X153670000Y-55880000D02*
X153820000Y-55880000D01*
X153820000Y-55880000D02*
X156800000Y-52900000D01*
X156800000Y-52900000D02*
X164100000Y-52900000D01*
X164100000Y-52900000D02*
X164300000Y-52700000D01*
X170400000Y-59900000D02*
X171100000Y-59200000D01*
X171100000Y-59200000D02*
X171100000Y-58600000D01*
X171100000Y-58600000D02*
X171500000Y-58200000D01*
X188600000Y-50600000D02*
X188690000Y-50690000D01*
X188690000Y-50690000D02*
X188690000Y-50800000D01*
X189000000Y-58600000D02*
X188820000Y-58420000D01*
X188820000Y-58420000D02*
X188690000Y-58420000D01*
X114300000Y-45720000D02*
X115380000Y-45720000D01*
X128270000Y-41530000D02*
X128270000Y-40640000D01*
X127400000Y-42400000D02*
X128270000Y-41530000D01*
X125700000Y-42400000D02*
X127400000Y-42400000D01*
X125100000Y-43000000D02*
X125700000Y-42400000D01*
X123000000Y-43000000D02*
X125100000Y-43000000D01*
X122100000Y-43900000D02*
X123000000Y-43000000D01*
X117200000Y-43900000D02*
X122100000Y-43900000D01*
X115380000Y-45720000D02*
X117200000Y-43900000D01*
D20*
G36*
X228940000Y-50414802D02*
X228940000Y-60700000D01*
X228997852Y-60990839D01*
X229162599Y-61237401D01*
X229740000Y-61814802D01*
X229740000Y-65985198D01*
X229085198Y-66640000D01*
X226500000Y-66640000D01*
X226257414Y-66688254D01*
X226209160Y-66697852D01*
X225962599Y-66862599D01*
X223144624Y-69680574D01*
X222951715Y-69718946D01*
X222469946Y-70040853D01*
X222250000Y-70370026D01*
X222030054Y-70040853D01*
X221548285Y-69718946D01*
X220980000Y-69605907D01*
X220411715Y-69718946D01*
X219929946Y-70040853D01*
X219710000Y-70370026D01*
X219490054Y-70040853D01*
X219008285Y-69718946D01*
X218440000Y-69605907D01*
X217871715Y-69718946D01*
X217389946Y-70040853D01*
X217170000Y-70370026D01*
X216950054Y-70040853D01*
X216468285Y-69718946D01*
X215900000Y-69605907D01*
X215331715Y-69718946D01*
X214849946Y-70040853D01*
X214528039Y-70522622D01*
X214415000Y-71090907D01*
X214415000Y-71149093D01*
X214528039Y-71717378D01*
X214849946Y-72199147D01*
X214851179Y-72199971D01*
X214814683Y-72206838D01*
X214598559Y-72345910D01*
X214453569Y-72558110D01*
X214402560Y-72810000D01*
X214402560Y-74510000D01*
X214427021Y-74640000D01*
X214014802Y-74640000D01*
X212860000Y-73485198D01*
X212860000Y-65700000D01*
X212802148Y-65409161D01*
X212637401Y-65162599D01*
X209037401Y-61562599D01*
X208790839Y-61397852D01*
X208500000Y-61340000D01*
X175700000Y-61340000D01*
X175409161Y-61397852D01*
X175162599Y-61562599D01*
X173262599Y-63462599D01*
X173097852Y-63709161D01*
X173040000Y-64000000D01*
X173040000Y-67885198D01*
X171685198Y-69240000D01*
X140914802Y-69240000D01*
X139935122Y-68260320D01*
X139935162Y-68214833D01*
X139793117Y-67871057D01*
X139530327Y-67607808D01*
X139186799Y-67465162D01*
X138814833Y-67464838D01*
X138471057Y-67606883D01*
X138207808Y-67869673D01*
X138065162Y-68213201D01*
X138064838Y-68585167D01*
X138206883Y-68928943D01*
X138469673Y-69192192D01*
X138813201Y-69334838D01*
X138860077Y-69334879D01*
X140062599Y-70537401D01*
X140309161Y-70702148D01*
X140600000Y-70760000D01*
X172000000Y-70760000D01*
X172290839Y-70702148D01*
X172537401Y-70537401D01*
X173293642Y-69781160D01*
X173293642Y-69781416D01*
X173280000Y-69850000D01*
X173280000Y-88542768D01*
X172690092Y-87659908D01*
X171538452Y-86890407D01*
X170180000Y-86620194D01*
X168821548Y-86890407D01*
X167669908Y-87659908D01*
X166900407Y-88811548D01*
X166630194Y-90170000D01*
X166900407Y-91528452D01*
X167669908Y-92680092D01*
X168552768Y-93270000D01*
X127357232Y-93270000D01*
X128240092Y-92680092D01*
X129009593Y-91528452D01*
X129279806Y-90170000D01*
X129009593Y-88811548D01*
X128240092Y-87659908D01*
X127088452Y-86890407D01*
X125730000Y-86620194D01*
X124371548Y-86890407D01*
X123219908Y-87659908D01*
X122630000Y-88542768D01*
X122630000Y-69850000D01*
X122616357Y-69781413D01*
X122616357Y-69711485D01*
X122519685Y-69225478D01*
X122463770Y-69090488D01*
X122413671Y-68969537D01*
X122138370Y-68557520D01*
X121942480Y-68361630D01*
X121530462Y-68086329D01*
X121424448Y-68042417D01*
X121274522Y-67980315D01*
X120788514Y-67883642D01*
X120718584Y-67883642D01*
X120650000Y-67870000D01*
X105688613Y-67870000D01*
X105737401Y-67837401D01*
X106774802Y-66800000D01*
X113192560Y-66800000D01*
X113192560Y-66890000D01*
X113236838Y-67125317D01*
X113375910Y-67341441D01*
X113588110Y-67486431D01*
X113840000Y-67537440D01*
X115840000Y-67537440D01*
X116075317Y-67493162D01*
X116291441Y-67354090D01*
X116436431Y-67141890D01*
X116487440Y-66890000D01*
X116487440Y-65190000D01*
X116462979Y-65060000D01*
X117218886Y-65060000D01*
X117192560Y-65190000D01*
X117192560Y-66890000D01*
X117236838Y-67125317D01*
X117375910Y-67341441D01*
X117588110Y-67486431D01*
X117840000Y-67537440D01*
X119840000Y-67537440D01*
X120075317Y-67493162D01*
X120291441Y-67354090D01*
X120436431Y-67141890D01*
X120487440Y-66890000D01*
X120487440Y-66800000D01*
X136960000Y-66800000D01*
X137250839Y-66742148D01*
X137497401Y-66577401D01*
X140440000Y-63634802D01*
X140440000Y-64800000D01*
X140497852Y-65090839D01*
X140662599Y-65337401D01*
X142162599Y-66837401D01*
X142409160Y-67002148D01*
X142700000Y-67060000D01*
X145000000Y-67060000D01*
X145290839Y-67002148D01*
X145537401Y-66837401D01*
X146587401Y-65787401D01*
X146752148Y-65540840D01*
X146810000Y-65250000D01*
X146810000Y-64772954D01*
X147100054Y-64579147D01*
X147327702Y-64238447D01*
X147394817Y-64381358D01*
X147823076Y-64771645D01*
X148233110Y-64941476D01*
X148463000Y-64820155D01*
X148463000Y-63627000D01*
X148443000Y-63627000D01*
X148443000Y-63373000D01*
X148463000Y-63373000D01*
X148463000Y-62179845D01*
X148233110Y-62058524D01*
X147823076Y-62228355D01*
X147394817Y-62618642D01*
X147327702Y-62761553D01*
X147100054Y-62420853D01*
X146618285Y-62098946D01*
X146050000Y-61985907D01*
X145481715Y-62098946D01*
X144999946Y-62420853D01*
X144972150Y-62462452D01*
X144963162Y-62414683D01*
X144824090Y-62198559D01*
X144611890Y-62053569D01*
X144360000Y-62002560D01*
X144270000Y-62002560D01*
X144270000Y-61610000D01*
X144212148Y-61319161D01*
X144212148Y-61319160D01*
X144047401Y-61072599D01*
X141730000Y-58755198D01*
X141730000Y-57077531D01*
X141760303Y-57065010D01*
X142153629Y-56672370D01*
X142239949Y-56464488D01*
X142324990Y-56670303D01*
X142717630Y-57063629D01*
X143230900Y-57276757D01*
X143786661Y-57277242D01*
X144300303Y-57065010D01*
X144693629Y-56672370D01*
X144779949Y-56464488D01*
X144864990Y-56670303D01*
X145257630Y-57063629D01*
X145770900Y-57276757D01*
X146326661Y-57277242D01*
X146840303Y-57065010D01*
X147233629Y-56672370D01*
X147319949Y-56464488D01*
X147404990Y-56670303D01*
X147797630Y-57063629D01*
X148310900Y-57276757D01*
X148866661Y-57277242D01*
X149380303Y-57065010D01*
X149773629Y-56672370D01*
X149859949Y-56464488D01*
X149944990Y-56670303D01*
X150337630Y-57063629D01*
X150850900Y-57276757D01*
X151406661Y-57277242D01*
X151920303Y-57065010D01*
X152313629Y-56672370D01*
X152399949Y-56464488D01*
X152484990Y-56670303D01*
X152877630Y-57063629D01*
X153390900Y-57276757D01*
X153946661Y-57277242D01*
X154460303Y-57065010D01*
X154853629Y-56672370D01*
X154939949Y-56464488D01*
X155024990Y-56670303D01*
X155417630Y-57063629D01*
X155930900Y-57276757D01*
X156486661Y-57277242D01*
X157000303Y-57065010D01*
X157393629Y-56672370D01*
X157479949Y-56464488D01*
X157564990Y-56670303D01*
X157957630Y-57063629D01*
X158470900Y-57276757D01*
X159026661Y-57277242D01*
X159540303Y-57065010D01*
X159933629Y-56672370D01*
X160019949Y-56464488D01*
X160104990Y-56670303D01*
X160497630Y-57063629D01*
X161010900Y-57276757D01*
X161566661Y-57277242D01*
X162080303Y-57065010D01*
X162473629Y-56672370D01*
X162559949Y-56464488D01*
X162644990Y-56670303D01*
X163037630Y-57063629D01*
X163550900Y-57276757D01*
X164106661Y-57277242D01*
X164620303Y-57065010D01*
X165013629Y-56672370D01*
X165099949Y-56464488D01*
X165184990Y-56670303D01*
X165577630Y-57063629D01*
X165610000Y-57077070D01*
X165610000Y-59415198D01*
X162285198Y-62740000D01*
X152393301Y-62740000D01*
X152180054Y-62420853D01*
X151698285Y-62098946D01*
X151130000Y-61985907D01*
X150561715Y-62098946D01*
X150079946Y-62420853D01*
X149852298Y-62761553D01*
X149785183Y-62618642D01*
X149356924Y-62228355D01*
X148946890Y-62058524D01*
X148717000Y-62179845D01*
X148717000Y-63373000D01*
X148737000Y-63373000D01*
X148737000Y-63627000D01*
X148717000Y-63627000D01*
X148717000Y-64820155D01*
X148946890Y-64941476D01*
X149356924Y-64771645D01*
X149785183Y-64381358D01*
X149852298Y-64238447D01*
X150079946Y-64579147D01*
X150561715Y-64901054D01*
X151130000Y-65014093D01*
X151698285Y-64901054D01*
X152180054Y-64579147D01*
X152393301Y-64260000D01*
X162600000Y-64260000D01*
X162890839Y-64202148D01*
X163137401Y-64037401D01*
X166907401Y-60267401D01*
X167029165Y-60085167D01*
X169464838Y-60085167D01*
X169606883Y-60428943D01*
X169869673Y-60692192D01*
X170213201Y-60834838D01*
X170585167Y-60835162D01*
X170928943Y-60693117D01*
X171192192Y-60430327D01*
X171334838Y-60086799D01*
X171334879Y-60039924D01*
X171637401Y-59737402D01*
X171787206Y-59513201D01*
X171802148Y-59490839D01*
X171860000Y-59200000D01*
X171860000Y-59062923D01*
X172028943Y-58993117D01*
X172292192Y-58730327D01*
X172302397Y-58705750D01*
X175435000Y-58705750D01*
X175435000Y-59396310D01*
X175531673Y-59629699D01*
X175710302Y-59808327D01*
X175943691Y-59905000D01*
X176784250Y-59905000D01*
X176943000Y-59746250D01*
X176943000Y-58547000D01*
X177197000Y-58547000D01*
X177197000Y-59746250D01*
X177355750Y-59905000D01*
X178196309Y-59905000D01*
X178429698Y-59808327D01*
X178608327Y-59629699D01*
X178705000Y-59396310D01*
X178705000Y-58705750D01*
X178546250Y-58547000D01*
X177197000Y-58547000D01*
X176943000Y-58547000D01*
X175593750Y-58547000D01*
X175435000Y-58705750D01*
X172302397Y-58705750D01*
X172434838Y-58386799D01*
X172435162Y-58014833D01*
X172293117Y-57671057D01*
X172066147Y-57443690D01*
X175435000Y-57443690D01*
X175435000Y-58134250D01*
X175593750Y-58293000D01*
X176943000Y-58293000D01*
X176943000Y-57093750D01*
X177197000Y-57093750D01*
X177197000Y-58293000D01*
X178546250Y-58293000D01*
X178705000Y-58134250D01*
X178705000Y-57570000D01*
X179422560Y-57570000D01*
X179422560Y-59270000D01*
X179466838Y-59505317D01*
X179605910Y-59721441D01*
X179818110Y-59866431D01*
X180070000Y-59917440D01*
X182070000Y-59917440D01*
X182305317Y-59873162D01*
X182521441Y-59734090D01*
X182666431Y-59521890D01*
X182717440Y-59270000D01*
X182717440Y-59180000D01*
X183042560Y-59180000D01*
X183042560Y-59270000D01*
X183086838Y-59505317D01*
X183225910Y-59721441D01*
X183438110Y-59866431D01*
X183690000Y-59917440D01*
X185690000Y-59917440D01*
X185925317Y-59873162D01*
X186141441Y-59734090D01*
X186286431Y-59521890D01*
X186337440Y-59270000D01*
X186337440Y-57570000D01*
X187042560Y-57570000D01*
X187042560Y-59270000D01*
X187086838Y-59505317D01*
X187225910Y-59721441D01*
X187438110Y-59866431D01*
X187690000Y-59917440D01*
X189690000Y-59917440D01*
X189925317Y-59873162D01*
X190141441Y-59734090D01*
X190286431Y-59521890D01*
X190337440Y-59270000D01*
X190337440Y-57570000D01*
X190293162Y-57334683D01*
X190154090Y-57118559D01*
X189941890Y-56973569D01*
X189690000Y-56922560D01*
X187690000Y-56922560D01*
X187454683Y-56966838D01*
X187238559Y-57105910D01*
X187093569Y-57318110D01*
X187042560Y-57570000D01*
X186337440Y-57570000D01*
X186293162Y-57334683D01*
X186154090Y-57118559D01*
X185941890Y-56973569D01*
X185690000Y-56922560D01*
X183690000Y-56922560D01*
X183454683Y-56966838D01*
X183238559Y-57105910D01*
X183093569Y-57318110D01*
X183042560Y-57570000D01*
X183042560Y-57660000D01*
X182717440Y-57660000D01*
X182717440Y-57570000D01*
X182673162Y-57334683D01*
X182534090Y-57118559D01*
X182321890Y-56973569D01*
X182070000Y-56922560D01*
X180070000Y-56922560D01*
X179834683Y-56966838D01*
X179618559Y-57105910D01*
X179473569Y-57318110D01*
X179422560Y-57570000D01*
X178705000Y-57570000D01*
X178705000Y-57443690D01*
X178608327Y-57210301D01*
X178429698Y-57031673D01*
X178196309Y-56935000D01*
X177355750Y-56935000D01*
X177197000Y-57093750D01*
X176943000Y-57093750D01*
X176784250Y-56935000D01*
X175943691Y-56935000D01*
X175710302Y-57031673D01*
X175531673Y-57210301D01*
X175435000Y-57443690D01*
X172066147Y-57443690D01*
X172030327Y-57407808D01*
X171690526Y-57266710D01*
X171797368Y-57261362D01*
X172181143Y-57102397D01*
X172250608Y-56860213D01*
X171450000Y-56059605D01*
X170649392Y-56860213D01*
X170718857Y-57102397D01*
X171242302Y-57289144D01*
X171257897Y-57288363D01*
X170971057Y-57406883D01*
X170707808Y-57669673D01*
X170565162Y-58013201D01*
X170565121Y-58060077D01*
X170562599Y-58062599D01*
X170397852Y-58309161D01*
X170340000Y-58600000D01*
X170340000Y-58885197D01*
X170260320Y-58964878D01*
X170214833Y-58964838D01*
X169871057Y-59106883D01*
X169607808Y-59369673D01*
X169465162Y-59713201D01*
X169464838Y-60085167D01*
X167029165Y-60085167D01*
X167072148Y-60020839D01*
X167130000Y-59730000D01*
X167130000Y-57077531D01*
X167160303Y-57065010D01*
X167365457Y-56860213D01*
X168109392Y-56860213D01*
X168178857Y-57102397D01*
X168702302Y-57289144D01*
X169257368Y-57261362D01*
X169641143Y-57102397D01*
X169710608Y-56860213D01*
X168910000Y-56059605D01*
X168109392Y-56860213D01*
X167365457Y-56860213D01*
X167553629Y-56672370D01*
X167633395Y-56480273D01*
X167687603Y-56611143D01*
X167929787Y-56680608D01*
X168730395Y-55880000D01*
X169089605Y-55880000D01*
X169890213Y-56680608D01*
X170132397Y-56611143D01*
X170176453Y-56487656D01*
X170227603Y-56611143D01*
X170469787Y-56680608D01*
X171270395Y-55880000D01*
X171629605Y-55880000D01*
X172430213Y-56680608D01*
X172672397Y-56611143D01*
X172859144Y-56087698D01*
X172831362Y-55532632D01*
X172672397Y-55148857D01*
X172430213Y-55079392D01*
X171629605Y-55880000D01*
X171270395Y-55880000D01*
X170469787Y-55079392D01*
X170227603Y-55148857D01*
X170183547Y-55272344D01*
X170132397Y-55148857D01*
X169890213Y-55079392D01*
X169089605Y-55880000D01*
X168730395Y-55880000D01*
X167929787Y-55079392D01*
X167687603Y-55148857D01*
X167637491Y-55289318D01*
X167555010Y-55089697D01*
X167365432Y-54899787D01*
X168109392Y-54899787D01*
X168910000Y-55700395D01*
X169710608Y-54899787D01*
X170649392Y-54899787D01*
X171450000Y-55700395D01*
X172250608Y-54899787D01*
X172181143Y-54657603D01*
X171657698Y-54470856D01*
X171102632Y-54498638D01*
X170718857Y-54657603D01*
X170649392Y-54899787D01*
X169710608Y-54899787D01*
X169641143Y-54657603D01*
X169117698Y-54470856D01*
X168562632Y-54498638D01*
X168178857Y-54657603D01*
X168109392Y-54899787D01*
X167365432Y-54899787D01*
X167162370Y-54696371D01*
X167130000Y-54682930D01*
X167130000Y-53870000D01*
X167072148Y-53579161D01*
X166907401Y-53332599D01*
X166059969Y-52485167D01*
X166264838Y-52485167D01*
X166406883Y-52828943D01*
X166669673Y-53092192D01*
X167013201Y-53234838D01*
X167385167Y-53235162D01*
X167728943Y-53093117D01*
X167992192Y-52830327D01*
X168010944Y-52785167D01*
X171264838Y-52785167D01*
X171406883Y-53128943D01*
X171669673Y-53392192D01*
X172013201Y-53534838D01*
X172060077Y-53534879D01*
X173262599Y-54737401D01*
X173509161Y-54902148D01*
X173800000Y-54960000D01*
X174137537Y-54960000D01*
X174169673Y-54992192D01*
X174513201Y-55134838D01*
X174885167Y-55135162D01*
X175228943Y-54993117D01*
X175485505Y-54737002D01*
X175593748Y-54737002D01*
X175435000Y-54895750D01*
X175435000Y-55586310D01*
X175531673Y-55819699D01*
X175710302Y-55998327D01*
X175943691Y-56095000D01*
X176784250Y-56095000D01*
X176943000Y-55936250D01*
X176943000Y-54737000D01*
X177197000Y-54737000D01*
X177197000Y-55936250D01*
X177355750Y-56095000D01*
X178196309Y-56095000D01*
X178429698Y-55998327D01*
X178608327Y-55819699D01*
X178705000Y-55586310D01*
X178705000Y-54895750D01*
X178546250Y-54737000D01*
X177197000Y-54737000D01*
X176943000Y-54737000D01*
X176923000Y-54737000D01*
X176923000Y-54483000D01*
X176943000Y-54483000D01*
X176943000Y-53283750D01*
X177197000Y-53283750D01*
X177197000Y-54483000D01*
X178546250Y-54483000D01*
X178705000Y-54324250D01*
X178705000Y-53760000D01*
X179422560Y-53760000D01*
X179422560Y-55460000D01*
X179466838Y-55695317D01*
X179605910Y-55911441D01*
X179818110Y-56056431D01*
X180070000Y-56107440D01*
X182070000Y-56107440D01*
X182305317Y-56063162D01*
X182521441Y-55924090D01*
X182666431Y-55711890D01*
X182717440Y-55460000D01*
X182717440Y-55370000D01*
X183042560Y-55370000D01*
X183042560Y-55460000D01*
X183086838Y-55695317D01*
X183225910Y-55911441D01*
X183438110Y-56056431D01*
X183690000Y-56107440D01*
X185690000Y-56107440D01*
X185925317Y-56063162D01*
X186141441Y-55924090D01*
X186286431Y-55711890D01*
X186337440Y-55460000D01*
X186337440Y-53760000D01*
X187042560Y-53760000D01*
X187042560Y-55460000D01*
X187086838Y-55695317D01*
X187225910Y-55911441D01*
X187438110Y-56056431D01*
X187690000Y-56107440D01*
X189690000Y-56107440D01*
X189925317Y-56063162D01*
X190141441Y-55924090D01*
X190286431Y-55711890D01*
X190337440Y-55460000D01*
X190337440Y-53760000D01*
X190293162Y-53524683D01*
X190154090Y-53308559D01*
X189941890Y-53163569D01*
X189690000Y-53112560D01*
X187690000Y-53112560D01*
X187454683Y-53156838D01*
X187238559Y-53295910D01*
X187093569Y-53508110D01*
X187042560Y-53760000D01*
X186337440Y-53760000D01*
X186293162Y-53524683D01*
X186154090Y-53308559D01*
X185941890Y-53163569D01*
X185690000Y-53112560D01*
X183690000Y-53112560D01*
X183454683Y-53156838D01*
X183238559Y-53295910D01*
X183093569Y-53508110D01*
X183042560Y-53760000D01*
X183042560Y-53850000D01*
X182717440Y-53850000D01*
X182717440Y-53760000D01*
X182673162Y-53524683D01*
X182534090Y-53308559D01*
X182321890Y-53163569D01*
X182070000Y-53112560D01*
X180070000Y-53112560D01*
X179834683Y-53156838D01*
X179618559Y-53295910D01*
X179473569Y-53508110D01*
X179422560Y-53760000D01*
X178705000Y-53760000D01*
X178705000Y-53633690D01*
X178608327Y-53400301D01*
X178429698Y-53221673D01*
X178196309Y-53125000D01*
X177355750Y-53125000D01*
X177197000Y-53283750D01*
X176943000Y-53283750D01*
X176784250Y-53125000D01*
X175943691Y-53125000D01*
X175710302Y-53221673D01*
X175531673Y-53400301D01*
X175441104Y-53618953D01*
X175230327Y-53407808D01*
X174886799Y-53265162D01*
X174514833Y-53264838D01*
X174171057Y-53406883D01*
X174137882Y-53440000D01*
X174114802Y-53440000D01*
X173135122Y-52460320D01*
X173135162Y-52414833D01*
X172993117Y-52071057D01*
X172730327Y-51807808D01*
X172386799Y-51665162D01*
X172014833Y-51664838D01*
X171671057Y-51806883D01*
X171407808Y-52069673D01*
X171265162Y-52413201D01*
X171264838Y-52785167D01*
X168010944Y-52785167D01*
X168134838Y-52486799D01*
X168134879Y-52439923D01*
X168577996Y-51996806D01*
X168828943Y-51893117D01*
X169092192Y-51630327D01*
X169234838Y-51286799D01*
X169235013Y-51085750D01*
X175435000Y-51085750D01*
X175435000Y-51776310D01*
X175531673Y-52009699D01*
X175710302Y-52188327D01*
X175943691Y-52285000D01*
X176784250Y-52285000D01*
X176943000Y-52126250D01*
X176943000Y-50927000D01*
X177197000Y-50927000D01*
X177197000Y-52126250D01*
X177355750Y-52285000D01*
X178196309Y-52285000D01*
X178429698Y-52188327D01*
X178608327Y-52009699D01*
X178705000Y-51776310D01*
X178705000Y-51085750D01*
X178546250Y-50927000D01*
X177197000Y-50927000D01*
X176943000Y-50927000D01*
X175593750Y-50927000D01*
X175435000Y-51085750D01*
X169235013Y-51085750D01*
X169235162Y-50914833D01*
X169093117Y-50571057D01*
X168830327Y-50307808D01*
X168486799Y-50165162D01*
X168114833Y-50164838D01*
X167771057Y-50306883D01*
X167507808Y-50569673D01*
X167365162Y-50913201D01*
X167365034Y-51060164D01*
X167060320Y-51364878D01*
X167014833Y-51364838D01*
X166671057Y-51506883D01*
X166407808Y-51769673D01*
X166265162Y-52113201D01*
X166264838Y-52485167D01*
X166059969Y-52485167D01*
X163237401Y-49662599D01*
X162990839Y-49497852D01*
X162700000Y-49440000D01*
X143514803Y-49440000D01*
X143435122Y-49360320D01*
X143435123Y-49360000D01*
X173485198Y-49360000D01*
X173964878Y-49839680D01*
X173964838Y-49885167D01*
X174106883Y-50228943D01*
X174369673Y-50492192D01*
X174713201Y-50634838D01*
X175085167Y-50635162D01*
X175428943Y-50493117D01*
X175435000Y-50487071D01*
X175435000Y-50514250D01*
X175593750Y-50673000D01*
X176943000Y-50673000D01*
X176943000Y-49473750D01*
X177197000Y-49473750D01*
X177197000Y-50673000D01*
X178546250Y-50673000D01*
X178705000Y-50514250D01*
X178705000Y-49950000D01*
X179422560Y-49950000D01*
X179422560Y-51650000D01*
X179466838Y-51885317D01*
X179605910Y-52101441D01*
X179818110Y-52246431D01*
X180070000Y-52297440D01*
X182070000Y-52297440D01*
X182305317Y-52253162D01*
X182521441Y-52114090D01*
X182666431Y-51901890D01*
X182717440Y-51650000D01*
X182717440Y-51560000D01*
X183042560Y-51560000D01*
X183042560Y-51650000D01*
X183086838Y-51885317D01*
X183225910Y-52101441D01*
X183438110Y-52246431D01*
X183690000Y-52297440D01*
X185690000Y-52297440D01*
X185925317Y-52253162D01*
X186141441Y-52114090D01*
X186286431Y-51901890D01*
X186337440Y-51650000D01*
X186337440Y-49950000D01*
X187042560Y-49950000D01*
X187042560Y-51650000D01*
X187086838Y-51885317D01*
X187225910Y-52101441D01*
X187438110Y-52246431D01*
X187690000Y-52297440D01*
X189690000Y-52297440D01*
X189925317Y-52253162D01*
X190141441Y-52114090D01*
X190286431Y-51901890D01*
X190337440Y-51650000D01*
X190337440Y-49950000D01*
X190293162Y-49714683D01*
X190154090Y-49498559D01*
X189941890Y-49353569D01*
X189690000Y-49302560D01*
X187690000Y-49302560D01*
X187454683Y-49346838D01*
X187238559Y-49485910D01*
X187093569Y-49698110D01*
X187042560Y-49950000D01*
X186337440Y-49950000D01*
X186293162Y-49714683D01*
X186154090Y-49498559D01*
X185941890Y-49353569D01*
X185690000Y-49302560D01*
X183690000Y-49302560D01*
X183454683Y-49346838D01*
X183238559Y-49485910D01*
X183093569Y-49698110D01*
X183042560Y-49950000D01*
X183042560Y-50040000D01*
X182717440Y-50040000D01*
X182717440Y-49950000D01*
X182673162Y-49714683D01*
X182534090Y-49498559D01*
X182321890Y-49353569D01*
X182070000Y-49302560D01*
X180070000Y-49302560D01*
X179834683Y-49346838D01*
X179618559Y-49485910D01*
X179473569Y-49698110D01*
X179422560Y-49950000D01*
X178705000Y-49950000D01*
X178705000Y-49823690D01*
X178608327Y-49590301D01*
X178429698Y-49411673D01*
X178196309Y-49315000D01*
X177355750Y-49315000D01*
X177197000Y-49473750D01*
X176943000Y-49473750D01*
X176784250Y-49315000D01*
X175943691Y-49315000D01*
X175780520Y-49382588D01*
X175693117Y-49171057D01*
X175430327Y-48907808D01*
X175086799Y-48765162D01*
X175039923Y-48765121D01*
X174337401Y-48062599D01*
X174278251Y-48023076D01*
X174334838Y-47886799D01*
X174335162Y-47514833D01*
X174236376Y-47275750D01*
X175435000Y-47275750D01*
X175435000Y-47966310D01*
X175531673Y-48199699D01*
X175710302Y-48378327D01*
X175943691Y-48475000D01*
X176784250Y-48475000D01*
X176943000Y-48316250D01*
X176943000Y-47117000D01*
X177197000Y-47117000D01*
X177197000Y-48316250D01*
X177355750Y-48475000D01*
X178196309Y-48475000D01*
X178429698Y-48378327D01*
X178608327Y-48199699D01*
X178705000Y-47966310D01*
X178705000Y-47275750D01*
X178546250Y-47117000D01*
X177197000Y-47117000D01*
X176943000Y-47117000D01*
X175593750Y-47117000D01*
X175435000Y-47275750D01*
X174236376Y-47275750D01*
X174193117Y-47171057D01*
X174160000Y-47137882D01*
X174160000Y-47100000D01*
X174102148Y-46809161D01*
X173937401Y-46562599D01*
X173235122Y-45860320D01*
X173235162Y-45814833D01*
X173129867Y-45560000D01*
X175637711Y-45560000D01*
X175694793Y-45617182D01*
X175531673Y-45780301D01*
X175435000Y-46013690D01*
X175435000Y-46704250D01*
X175593750Y-46863000D01*
X176943000Y-46863000D01*
X176943000Y-45663750D01*
X176900718Y-45621468D01*
X177092192Y-45430327D01*
X177099842Y-45411903D01*
X177106883Y-45428943D01*
X177269203Y-45591547D01*
X177197000Y-45663750D01*
X177197000Y-46863000D01*
X178546250Y-46863000D01*
X178705000Y-46704250D01*
X178705000Y-46013690D01*
X178641339Y-45860000D01*
X179492776Y-45860000D01*
X179473569Y-45888110D01*
X179422560Y-46140000D01*
X179422560Y-47840000D01*
X179466838Y-48075317D01*
X179605910Y-48291441D01*
X179818110Y-48436431D01*
X180070000Y-48487440D01*
X182070000Y-48487440D01*
X182305317Y-48443162D01*
X182521441Y-48304090D01*
X182666431Y-48091890D01*
X182717440Y-47840000D01*
X182717440Y-47750000D01*
X183042560Y-47750000D01*
X183042560Y-47840000D01*
X183086838Y-48075317D01*
X183225910Y-48291441D01*
X183438110Y-48436431D01*
X183690000Y-48487440D01*
X185690000Y-48487440D01*
X185925317Y-48443162D01*
X186141441Y-48304090D01*
X186286431Y-48091890D01*
X186337440Y-47840000D01*
X186337440Y-46140000D01*
X186293162Y-45904683D01*
X186264409Y-45860000D01*
X187112776Y-45860000D01*
X187093569Y-45888110D01*
X187042560Y-46140000D01*
X187042560Y-47840000D01*
X187086838Y-48075317D01*
X187225910Y-48291441D01*
X187438110Y-48436431D01*
X187690000Y-48487440D01*
X189690000Y-48487440D01*
X189925317Y-48443162D01*
X190141441Y-48304090D01*
X190286431Y-48091890D01*
X190337440Y-47840000D01*
X190337440Y-46140000D01*
X190293162Y-45904683D01*
X190257101Y-45848642D01*
X190490839Y-45802148D01*
X190737401Y-45637401D01*
X197414802Y-38960000D01*
X217485198Y-38960000D01*
X228940000Y-50414802D01*
X228940000Y-50414802D01*
G37*
X228940000Y-50414802D02*
X228940000Y-60700000D01*
X228997852Y-60990839D01*
X229162599Y-61237401D01*
X229740000Y-61814802D01*
X229740000Y-65985198D01*
X229085198Y-66640000D01*
X226500000Y-66640000D01*
X226257414Y-66688254D01*
X226209160Y-66697852D01*
X225962599Y-66862599D01*
X223144624Y-69680574D01*
X222951715Y-69718946D01*
X222469946Y-70040853D01*
X222250000Y-70370026D01*
X222030054Y-70040853D01*
X221548285Y-69718946D01*
X220980000Y-69605907D01*
X220411715Y-69718946D01*
X219929946Y-70040853D01*
X219710000Y-70370026D01*
X219490054Y-70040853D01*
X219008285Y-69718946D01*
X218440000Y-69605907D01*
X217871715Y-69718946D01*
X217389946Y-70040853D01*
X217170000Y-70370026D01*
X216950054Y-70040853D01*
X216468285Y-69718946D01*
X215900000Y-69605907D01*
X215331715Y-69718946D01*
X214849946Y-70040853D01*
X214528039Y-70522622D01*
X214415000Y-71090907D01*
X214415000Y-71149093D01*
X214528039Y-71717378D01*
X214849946Y-72199147D01*
X214851179Y-72199971D01*
X214814683Y-72206838D01*
X214598559Y-72345910D01*
X214453569Y-72558110D01*
X214402560Y-72810000D01*
X214402560Y-74510000D01*
X214427021Y-74640000D01*
X214014802Y-74640000D01*
X212860000Y-73485198D01*
X212860000Y-65700000D01*
X212802148Y-65409161D01*
X212637401Y-65162599D01*
X209037401Y-61562599D01*
X208790839Y-61397852D01*
X208500000Y-61340000D01*
X175700000Y-61340000D01*
X175409161Y-61397852D01*
X175162599Y-61562599D01*
X173262599Y-63462599D01*
X173097852Y-63709161D01*
X173040000Y-64000000D01*
X173040000Y-67885198D01*
X171685198Y-69240000D01*
X140914802Y-69240000D01*
X139935122Y-68260320D01*
X139935162Y-68214833D01*
X139793117Y-67871057D01*
X139530327Y-67607808D01*
X139186799Y-67465162D01*
X138814833Y-67464838D01*
X138471057Y-67606883D01*
X138207808Y-67869673D01*
X138065162Y-68213201D01*
X138064838Y-68585167D01*
X138206883Y-68928943D01*
X138469673Y-69192192D01*
X138813201Y-69334838D01*
X138860077Y-69334879D01*
X140062599Y-70537401D01*
X140309161Y-70702148D01*
X140600000Y-70760000D01*
X172000000Y-70760000D01*
X172290839Y-70702148D01*
X172537401Y-70537401D01*
X173293642Y-69781160D01*
X173293642Y-69781416D01*
X173280000Y-69850000D01*
X173280000Y-88542768D01*
X172690092Y-87659908D01*
X171538452Y-86890407D01*
X170180000Y-86620194D01*
X168821548Y-86890407D01*
X167669908Y-87659908D01*
X166900407Y-88811548D01*
X166630194Y-90170000D01*
X166900407Y-91528452D01*
X167669908Y-92680092D01*
X168552768Y-93270000D01*
X127357232Y-93270000D01*
X128240092Y-92680092D01*
X129009593Y-91528452D01*
X129279806Y-90170000D01*
X129009593Y-88811548D01*
X128240092Y-87659908D01*
X127088452Y-86890407D01*
X125730000Y-86620194D01*
X124371548Y-86890407D01*
X123219908Y-87659908D01*
X122630000Y-88542768D01*
X122630000Y-69850000D01*
X122616357Y-69781413D01*
X122616357Y-69711485D01*
X122519685Y-69225478D01*
X122463770Y-69090488D01*
X122413671Y-68969537D01*
X122138370Y-68557520D01*
X121942480Y-68361630D01*
X121530462Y-68086329D01*
X121424448Y-68042417D01*
X121274522Y-67980315D01*
X120788514Y-67883642D01*
X120718584Y-67883642D01*
X120650000Y-67870000D01*
X105688613Y-67870000D01*
X105737401Y-67837401D01*
X106774802Y-66800000D01*
X113192560Y-66800000D01*
X113192560Y-66890000D01*
X113236838Y-67125317D01*
X113375910Y-67341441D01*
X113588110Y-67486431D01*
X113840000Y-67537440D01*
X115840000Y-67537440D01*
X116075317Y-67493162D01*
X116291441Y-67354090D01*
X116436431Y-67141890D01*
X116487440Y-66890000D01*
X116487440Y-65190000D01*
X116462979Y-65060000D01*
X117218886Y-65060000D01*
X117192560Y-65190000D01*
X117192560Y-66890000D01*
X117236838Y-67125317D01*
X117375910Y-67341441D01*
X117588110Y-67486431D01*
X117840000Y-67537440D01*
X119840000Y-67537440D01*
X120075317Y-67493162D01*
X120291441Y-67354090D01*
X120436431Y-67141890D01*
X120487440Y-66890000D01*
X120487440Y-66800000D01*
X136960000Y-66800000D01*
X137250839Y-66742148D01*
X137497401Y-66577401D01*
X140440000Y-63634802D01*
X140440000Y-64800000D01*
X140497852Y-65090839D01*
X140662599Y-65337401D01*
X142162599Y-66837401D01*
X142409160Y-67002148D01*
X142700000Y-67060000D01*
X145000000Y-67060000D01*
X145290839Y-67002148D01*
X145537401Y-66837401D01*
X146587401Y-65787401D01*
X146752148Y-65540840D01*
X146810000Y-65250000D01*
X146810000Y-64772954D01*
X147100054Y-64579147D01*
X147327702Y-64238447D01*
X147394817Y-64381358D01*
X147823076Y-64771645D01*
X148233110Y-64941476D01*
X148463000Y-64820155D01*
X148463000Y-63627000D01*
X148443000Y-63627000D01*
X148443000Y-63373000D01*
X148463000Y-63373000D01*
X148463000Y-62179845D01*
X148233110Y-62058524D01*
X147823076Y-62228355D01*
X147394817Y-62618642D01*
X147327702Y-62761553D01*
X147100054Y-62420853D01*
X146618285Y-62098946D01*
X146050000Y-61985907D01*
X145481715Y-62098946D01*
X144999946Y-62420853D01*
X144972150Y-62462452D01*
X144963162Y-62414683D01*
X144824090Y-62198559D01*
X144611890Y-62053569D01*
X144360000Y-62002560D01*
X144270000Y-62002560D01*
X144270000Y-61610000D01*
X144212148Y-61319161D01*
X144212148Y-61319160D01*
X144047401Y-61072599D01*
X141730000Y-58755198D01*
X141730000Y-57077531D01*
X141760303Y-57065010D01*
X142153629Y-56672370D01*
X142239949Y-56464488D01*
X142324990Y-56670303D01*
X142717630Y-57063629D01*
X143230900Y-57276757D01*
X143786661Y-57277242D01*
X144300303Y-57065010D01*
X144693629Y-56672370D01*
X144779949Y-56464488D01*
X144864990Y-56670303D01*
X145257630Y-57063629D01*
X145770900Y-57276757D01*
X146326661Y-57277242D01*
X146840303Y-57065010D01*
X147233629Y-56672370D01*
X147319949Y-56464488D01*
X147404990Y-56670303D01*
X147797630Y-57063629D01*
X148310900Y-57276757D01*
X148866661Y-57277242D01*
X149380303Y-57065010D01*
X149773629Y-56672370D01*
X149859949Y-56464488D01*
X149944990Y-56670303D01*
X150337630Y-57063629D01*
X150850900Y-57276757D01*
X151406661Y-57277242D01*
X151920303Y-57065010D01*
X152313629Y-56672370D01*
X152399949Y-56464488D01*
X152484990Y-56670303D01*
X152877630Y-57063629D01*
X153390900Y-57276757D01*
X153946661Y-57277242D01*
X154460303Y-57065010D01*
X154853629Y-56672370D01*
X154939949Y-56464488D01*
X155024990Y-56670303D01*
X155417630Y-57063629D01*
X155930900Y-57276757D01*
X156486661Y-57277242D01*
X157000303Y-57065010D01*
X157393629Y-56672370D01*
X157479949Y-56464488D01*
X157564990Y-56670303D01*
X157957630Y-57063629D01*
X158470900Y-57276757D01*
X159026661Y-57277242D01*
X159540303Y-57065010D01*
X159933629Y-56672370D01*
X160019949Y-56464488D01*
X160104990Y-56670303D01*
X160497630Y-57063629D01*
X161010900Y-57276757D01*
X161566661Y-57277242D01*
X162080303Y-57065010D01*
X162473629Y-56672370D01*
X162559949Y-56464488D01*
X162644990Y-56670303D01*
X163037630Y-57063629D01*
X163550900Y-57276757D01*
X164106661Y-57277242D01*
X164620303Y-57065010D01*
X165013629Y-56672370D01*
X165099949Y-56464488D01*
X165184990Y-56670303D01*
X165577630Y-57063629D01*
X165610000Y-57077070D01*
X165610000Y-59415198D01*
X162285198Y-62740000D01*
X152393301Y-62740000D01*
X152180054Y-62420853D01*
X151698285Y-62098946D01*
X151130000Y-61985907D01*
X150561715Y-62098946D01*
X150079946Y-62420853D01*
X149852298Y-62761553D01*
X149785183Y-62618642D01*
X149356924Y-62228355D01*
X148946890Y-62058524D01*
X148717000Y-62179845D01*
X148717000Y-63373000D01*
X148737000Y-63373000D01*
X148737000Y-63627000D01*
X148717000Y-63627000D01*
X148717000Y-64820155D01*
X148946890Y-64941476D01*
X149356924Y-64771645D01*
X149785183Y-64381358D01*
X149852298Y-64238447D01*
X150079946Y-64579147D01*
X150561715Y-64901054D01*
X151130000Y-65014093D01*
X151698285Y-64901054D01*
X152180054Y-64579147D01*
X152393301Y-64260000D01*
X162600000Y-64260000D01*
X162890839Y-64202148D01*
X163137401Y-64037401D01*
X166907401Y-60267401D01*
X167029165Y-60085167D01*
X169464838Y-60085167D01*
X169606883Y-60428943D01*
X169869673Y-60692192D01*
X170213201Y-60834838D01*
X170585167Y-60835162D01*
X170928943Y-60693117D01*
X171192192Y-60430327D01*
X171334838Y-60086799D01*
X171334879Y-60039924D01*
X171637401Y-59737402D01*
X171787206Y-59513201D01*
X171802148Y-59490839D01*
X171860000Y-59200000D01*
X171860000Y-59062923D01*
X172028943Y-58993117D01*
X172292192Y-58730327D01*
X172302397Y-58705750D01*
X175435000Y-58705750D01*
X175435000Y-59396310D01*
X175531673Y-59629699D01*
X175710302Y-59808327D01*
X175943691Y-59905000D01*
X176784250Y-59905000D01*
X176943000Y-59746250D01*
X176943000Y-58547000D01*
X177197000Y-58547000D01*
X177197000Y-59746250D01*
X177355750Y-59905000D01*
X178196309Y-59905000D01*
X178429698Y-59808327D01*
X178608327Y-59629699D01*
X178705000Y-59396310D01*
X178705000Y-58705750D01*
X178546250Y-58547000D01*
X177197000Y-58547000D01*
X176943000Y-58547000D01*
X175593750Y-58547000D01*
X175435000Y-58705750D01*
X172302397Y-58705750D01*
X172434838Y-58386799D01*
X172435162Y-58014833D01*
X172293117Y-57671057D01*
X172066147Y-57443690D01*
X175435000Y-57443690D01*
X175435000Y-58134250D01*
X175593750Y-58293000D01*
X176943000Y-58293000D01*
X176943000Y-57093750D01*
X177197000Y-57093750D01*
X177197000Y-58293000D01*
X178546250Y-58293000D01*
X178705000Y-58134250D01*
X178705000Y-57570000D01*
X179422560Y-57570000D01*
X179422560Y-59270000D01*
X179466838Y-59505317D01*
X179605910Y-59721441D01*
X179818110Y-59866431D01*
X180070000Y-59917440D01*
X182070000Y-59917440D01*
X182305317Y-59873162D01*
X182521441Y-59734090D01*
X182666431Y-59521890D01*
X182717440Y-59270000D01*
X182717440Y-59180000D01*
X183042560Y-59180000D01*
X183042560Y-59270000D01*
X183086838Y-59505317D01*
X183225910Y-59721441D01*
X183438110Y-59866431D01*
X183690000Y-59917440D01*
X185690000Y-59917440D01*
X185925317Y-59873162D01*
X186141441Y-59734090D01*
X186286431Y-59521890D01*
X186337440Y-59270000D01*
X186337440Y-57570000D01*
X187042560Y-57570000D01*
X187042560Y-59270000D01*
X187086838Y-59505317D01*
X187225910Y-59721441D01*
X187438110Y-59866431D01*
X187690000Y-59917440D01*
X189690000Y-59917440D01*
X189925317Y-59873162D01*
X190141441Y-59734090D01*
X190286431Y-59521890D01*
X190337440Y-59270000D01*
X190337440Y-57570000D01*
X190293162Y-57334683D01*
X190154090Y-57118559D01*
X189941890Y-56973569D01*
X189690000Y-56922560D01*
X187690000Y-56922560D01*
X187454683Y-56966838D01*
X187238559Y-57105910D01*
X187093569Y-57318110D01*
X187042560Y-57570000D01*
X186337440Y-57570000D01*
X186293162Y-57334683D01*
X186154090Y-57118559D01*
X185941890Y-56973569D01*
X185690000Y-56922560D01*
X183690000Y-56922560D01*
X183454683Y-56966838D01*
X183238559Y-57105910D01*
X183093569Y-57318110D01*
X183042560Y-57570000D01*
X183042560Y-57660000D01*
X182717440Y-57660000D01*
X182717440Y-57570000D01*
X182673162Y-57334683D01*
X182534090Y-57118559D01*
X182321890Y-56973569D01*
X182070000Y-56922560D01*
X180070000Y-56922560D01*
X179834683Y-56966838D01*
X179618559Y-57105910D01*
X179473569Y-57318110D01*
X179422560Y-57570000D01*
X178705000Y-57570000D01*
X178705000Y-57443690D01*
X178608327Y-57210301D01*
X178429698Y-57031673D01*
X178196309Y-56935000D01*
X177355750Y-56935000D01*
X177197000Y-57093750D01*
X176943000Y-57093750D01*
X176784250Y-56935000D01*
X175943691Y-56935000D01*
X175710302Y-57031673D01*
X175531673Y-57210301D01*
X175435000Y-57443690D01*
X172066147Y-57443690D01*
X172030327Y-57407808D01*
X171690526Y-57266710D01*
X171797368Y-57261362D01*
X172181143Y-57102397D01*
X172250608Y-56860213D01*
X171450000Y-56059605D01*
X170649392Y-56860213D01*
X170718857Y-57102397D01*
X171242302Y-57289144D01*
X171257897Y-57288363D01*
X170971057Y-57406883D01*
X170707808Y-57669673D01*
X170565162Y-58013201D01*
X170565121Y-58060077D01*
X170562599Y-58062599D01*
X170397852Y-58309161D01*
X170340000Y-58600000D01*
X170340000Y-58885197D01*
X170260320Y-58964878D01*
X170214833Y-58964838D01*
X169871057Y-59106883D01*
X169607808Y-59369673D01*
X169465162Y-59713201D01*
X169464838Y-60085167D01*
X167029165Y-60085167D01*
X167072148Y-60020839D01*
X167130000Y-59730000D01*
X167130000Y-57077531D01*
X167160303Y-57065010D01*
X167365457Y-56860213D01*
X168109392Y-56860213D01*
X168178857Y-57102397D01*
X168702302Y-57289144D01*
X169257368Y-57261362D01*
X169641143Y-57102397D01*
X169710608Y-56860213D01*
X168910000Y-56059605D01*
X168109392Y-56860213D01*
X167365457Y-56860213D01*
X167553629Y-56672370D01*
X167633395Y-56480273D01*
X167687603Y-56611143D01*
X167929787Y-56680608D01*
X168730395Y-55880000D01*
X169089605Y-55880000D01*
X169890213Y-56680608D01*
X170132397Y-56611143D01*
X170176453Y-56487656D01*
X170227603Y-56611143D01*
X170469787Y-56680608D01*
X171270395Y-55880000D01*
X171629605Y-55880000D01*
X172430213Y-56680608D01*
X172672397Y-56611143D01*
X172859144Y-56087698D01*
X172831362Y-55532632D01*
X172672397Y-55148857D01*
X172430213Y-55079392D01*
X171629605Y-55880000D01*
X171270395Y-55880000D01*
X170469787Y-55079392D01*
X170227603Y-55148857D01*
X170183547Y-55272344D01*
X170132397Y-55148857D01*
X169890213Y-55079392D01*
X169089605Y-55880000D01*
X168730395Y-55880000D01*
X167929787Y-55079392D01*
X167687603Y-55148857D01*
X167637491Y-55289318D01*
X167555010Y-55089697D01*
X167365432Y-54899787D01*
X168109392Y-54899787D01*
X168910000Y-55700395D01*
X169710608Y-54899787D01*
X170649392Y-54899787D01*
X171450000Y-55700395D01*
X172250608Y-54899787D01*
X172181143Y-54657603D01*
X171657698Y-54470856D01*
X171102632Y-54498638D01*
X170718857Y-54657603D01*
X170649392Y-54899787D01*
X169710608Y-54899787D01*
X169641143Y-54657603D01*
X169117698Y-54470856D01*
X168562632Y-54498638D01*
X168178857Y-54657603D01*
X168109392Y-54899787D01*
X167365432Y-54899787D01*
X167162370Y-54696371D01*
X167130000Y-54682930D01*
X167130000Y-53870000D01*
X167072148Y-53579161D01*
X166907401Y-53332599D01*
X166059969Y-52485167D01*
X166264838Y-52485167D01*
X166406883Y-52828943D01*
X166669673Y-53092192D01*
X167013201Y-53234838D01*
X167385167Y-53235162D01*
X167728943Y-53093117D01*
X167992192Y-52830327D01*
X168010944Y-52785167D01*
X171264838Y-52785167D01*
X171406883Y-53128943D01*
X171669673Y-53392192D01*
X172013201Y-53534838D01*
X172060077Y-53534879D01*
X173262599Y-54737401D01*
X173509161Y-54902148D01*
X173800000Y-54960000D01*
X174137537Y-54960000D01*
X174169673Y-54992192D01*
X174513201Y-55134838D01*
X174885167Y-55135162D01*
X175228943Y-54993117D01*
X175485505Y-54737002D01*
X175593748Y-54737002D01*
X175435000Y-54895750D01*
X175435000Y-55586310D01*
X175531673Y-55819699D01*
X175710302Y-55998327D01*
X175943691Y-56095000D01*
X176784250Y-56095000D01*
X176943000Y-55936250D01*
X176943000Y-54737000D01*
X177197000Y-54737000D01*
X177197000Y-55936250D01*
X177355750Y-56095000D01*
X178196309Y-56095000D01*
X178429698Y-55998327D01*
X178608327Y-55819699D01*
X178705000Y-55586310D01*
X178705000Y-54895750D01*
X178546250Y-54737000D01*
X177197000Y-54737000D01*
X176943000Y-54737000D01*
X176923000Y-54737000D01*
X176923000Y-54483000D01*
X176943000Y-54483000D01*
X176943000Y-53283750D01*
X177197000Y-53283750D01*
X177197000Y-54483000D01*
X178546250Y-54483000D01*
X178705000Y-54324250D01*
X178705000Y-53760000D01*
X179422560Y-53760000D01*
X179422560Y-55460000D01*
X179466838Y-55695317D01*
X179605910Y-55911441D01*
X179818110Y-56056431D01*
X180070000Y-56107440D01*
X182070000Y-56107440D01*
X182305317Y-56063162D01*
X182521441Y-55924090D01*
X182666431Y-55711890D01*
X182717440Y-55460000D01*
X182717440Y-55370000D01*
X183042560Y-55370000D01*
X183042560Y-55460000D01*
X183086838Y-55695317D01*
X183225910Y-55911441D01*
X183438110Y-56056431D01*
X183690000Y-56107440D01*
X185690000Y-56107440D01*
X185925317Y-56063162D01*
X186141441Y-55924090D01*
X186286431Y-55711890D01*
X186337440Y-55460000D01*
X186337440Y-53760000D01*
X187042560Y-53760000D01*
X187042560Y-55460000D01*
X187086838Y-55695317D01*
X187225910Y-55911441D01*
X187438110Y-56056431D01*
X187690000Y-56107440D01*
X189690000Y-56107440D01*
X189925317Y-56063162D01*
X190141441Y-55924090D01*
X190286431Y-55711890D01*
X190337440Y-55460000D01*
X190337440Y-53760000D01*
X190293162Y-53524683D01*
X190154090Y-53308559D01*
X189941890Y-53163569D01*
X189690000Y-53112560D01*
X187690000Y-53112560D01*
X187454683Y-53156838D01*
X187238559Y-53295910D01*
X187093569Y-53508110D01*
X187042560Y-53760000D01*
X186337440Y-53760000D01*
X186293162Y-53524683D01*
X186154090Y-53308559D01*
X185941890Y-53163569D01*
X185690000Y-53112560D01*
X183690000Y-53112560D01*
X183454683Y-53156838D01*
X183238559Y-53295910D01*
X183093569Y-53508110D01*
X183042560Y-53760000D01*
X183042560Y-53850000D01*
X182717440Y-53850000D01*
X182717440Y-53760000D01*
X182673162Y-53524683D01*
X182534090Y-53308559D01*
X182321890Y-53163569D01*
X182070000Y-53112560D01*
X180070000Y-53112560D01*
X179834683Y-53156838D01*
X179618559Y-53295910D01*
X179473569Y-53508110D01*
X179422560Y-53760000D01*
X178705000Y-53760000D01*
X178705000Y-53633690D01*
X178608327Y-53400301D01*
X178429698Y-53221673D01*
X178196309Y-53125000D01*
X177355750Y-53125000D01*
X177197000Y-53283750D01*
X176943000Y-53283750D01*
X176784250Y-53125000D01*
X175943691Y-53125000D01*
X175710302Y-53221673D01*
X175531673Y-53400301D01*
X175441104Y-53618953D01*
X175230327Y-53407808D01*
X174886799Y-53265162D01*
X174514833Y-53264838D01*
X174171057Y-53406883D01*
X174137882Y-53440000D01*
X174114802Y-53440000D01*
X173135122Y-52460320D01*
X173135162Y-52414833D01*
X172993117Y-52071057D01*
X172730327Y-51807808D01*
X172386799Y-51665162D01*
X172014833Y-51664838D01*
X171671057Y-51806883D01*
X171407808Y-52069673D01*
X171265162Y-52413201D01*
X171264838Y-52785167D01*
X168010944Y-52785167D01*
X168134838Y-52486799D01*
X168134879Y-52439923D01*
X168577996Y-51996806D01*
X168828943Y-51893117D01*
X169092192Y-51630327D01*
X169234838Y-51286799D01*
X169235013Y-51085750D01*
X175435000Y-51085750D01*
X175435000Y-51776310D01*
X175531673Y-52009699D01*
X175710302Y-52188327D01*
X175943691Y-52285000D01*
X176784250Y-52285000D01*
X176943000Y-52126250D01*
X176943000Y-50927000D01*
X177197000Y-50927000D01*
X177197000Y-52126250D01*
X177355750Y-52285000D01*
X178196309Y-52285000D01*
X178429698Y-52188327D01*
X178608327Y-52009699D01*
X178705000Y-51776310D01*
X178705000Y-51085750D01*
X178546250Y-50927000D01*
X177197000Y-50927000D01*
X176943000Y-50927000D01*
X175593750Y-50927000D01*
X175435000Y-51085750D01*
X169235013Y-51085750D01*
X169235162Y-50914833D01*
X169093117Y-50571057D01*
X168830327Y-50307808D01*
X168486799Y-50165162D01*
X168114833Y-50164838D01*
X167771057Y-50306883D01*
X167507808Y-50569673D01*
X167365162Y-50913201D01*
X167365034Y-51060164D01*
X167060320Y-51364878D01*
X167014833Y-51364838D01*
X166671057Y-51506883D01*
X166407808Y-51769673D01*
X166265162Y-52113201D01*
X166264838Y-52485167D01*
X166059969Y-52485167D01*
X163237401Y-49662599D01*
X162990839Y-49497852D01*
X162700000Y-49440000D01*
X143514803Y-49440000D01*
X143435122Y-49360320D01*
X143435123Y-49360000D01*
X173485198Y-49360000D01*
X173964878Y-49839680D01*
X173964838Y-49885167D01*
X174106883Y-50228943D01*
X174369673Y-50492192D01*
X174713201Y-50634838D01*
X175085167Y-50635162D01*
X175428943Y-50493117D01*
X175435000Y-50487071D01*
X175435000Y-50514250D01*
X175593750Y-50673000D01*
X176943000Y-50673000D01*
X176943000Y-49473750D01*
X177197000Y-49473750D01*
X177197000Y-50673000D01*
X178546250Y-50673000D01*
X178705000Y-50514250D01*
X178705000Y-49950000D01*
X179422560Y-49950000D01*
X179422560Y-51650000D01*
X179466838Y-51885317D01*
X179605910Y-52101441D01*
X179818110Y-52246431D01*
X180070000Y-52297440D01*
X182070000Y-52297440D01*
X182305317Y-52253162D01*
X182521441Y-52114090D01*
X182666431Y-51901890D01*
X182717440Y-51650000D01*
X182717440Y-51560000D01*
X183042560Y-51560000D01*
X183042560Y-51650000D01*
X183086838Y-51885317D01*
X183225910Y-52101441D01*
X183438110Y-52246431D01*
X183690000Y-52297440D01*
X185690000Y-52297440D01*
X185925317Y-52253162D01*
X186141441Y-52114090D01*
X186286431Y-51901890D01*
X186337440Y-51650000D01*
X186337440Y-49950000D01*
X187042560Y-49950000D01*
X187042560Y-51650000D01*
X187086838Y-51885317D01*
X187225910Y-52101441D01*
X187438110Y-52246431D01*
X187690000Y-52297440D01*
X189690000Y-52297440D01*
X189925317Y-52253162D01*
X190141441Y-52114090D01*
X190286431Y-51901890D01*
X190337440Y-51650000D01*
X190337440Y-49950000D01*
X190293162Y-49714683D01*
X190154090Y-49498559D01*
X189941890Y-49353569D01*
X189690000Y-49302560D01*
X187690000Y-49302560D01*
X187454683Y-49346838D01*
X187238559Y-49485910D01*
X187093569Y-49698110D01*
X187042560Y-49950000D01*
X186337440Y-49950000D01*
X186293162Y-49714683D01*
X186154090Y-49498559D01*
X185941890Y-49353569D01*
X185690000Y-49302560D01*
X183690000Y-49302560D01*
X183454683Y-49346838D01*
X183238559Y-49485910D01*
X183093569Y-49698110D01*
X183042560Y-49950000D01*
X183042560Y-50040000D01*
X182717440Y-50040000D01*
X182717440Y-49950000D01*
X182673162Y-49714683D01*
X182534090Y-49498559D01*
X182321890Y-49353569D01*
X182070000Y-49302560D01*
X180070000Y-49302560D01*
X179834683Y-49346838D01*
X179618559Y-49485910D01*
X179473569Y-49698110D01*
X179422560Y-49950000D01*
X178705000Y-49950000D01*
X178705000Y-49823690D01*
X178608327Y-49590301D01*
X178429698Y-49411673D01*
X178196309Y-49315000D01*
X177355750Y-49315000D01*
X177197000Y-49473750D01*
X176943000Y-49473750D01*
X176784250Y-49315000D01*
X175943691Y-49315000D01*
X175780520Y-49382588D01*
X175693117Y-49171057D01*
X175430327Y-48907808D01*
X175086799Y-48765162D01*
X175039923Y-48765121D01*
X174337401Y-48062599D01*
X174278251Y-48023076D01*
X174334838Y-47886799D01*
X174335162Y-47514833D01*
X174236376Y-47275750D01*
X175435000Y-47275750D01*
X175435000Y-47966310D01*
X175531673Y-48199699D01*
X175710302Y-48378327D01*
X175943691Y-48475000D01*
X176784250Y-48475000D01*
X176943000Y-48316250D01*
X176943000Y-47117000D01*
X177197000Y-47117000D01*
X177197000Y-48316250D01*
X177355750Y-48475000D01*
X178196309Y-48475000D01*
X178429698Y-48378327D01*
X178608327Y-48199699D01*
X178705000Y-47966310D01*
X178705000Y-47275750D01*
X178546250Y-47117000D01*
X177197000Y-47117000D01*
X176943000Y-47117000D01*
X175593750Y-47117000D01*
X175435000Y-47275750D01*
X174236376Y-47275750D01*
X174193117Y-47171057D01*
X174160000Y-47137882D01*
X174160000Y-47100000D01*
X174102148Y-46809161D01*
X173937401Y-46562599D01*
X173235122Y-45860320D01*
X173235162Y-45814833D01*
X173129867Y-45560000D01*
X175637711Y-45560000D01*
X175694793Y-45617182D01*
X175531673Y-45780301D01*
X175435000Y-46013690D01*
X175435000Y-46704250D01*
X175593750Y-46863000D01*
X176943000Y-46863000D01*
X176943000Y-45663750D01*
X176900718Y-45621468D01*
X177092192Y-45430327D01*
X177099842Y-45411903D01*
X177106883Y-45428943D01*
X177269203Y-45591547D01*
X177197000Y-45663750D01*
X177197000Y-46863000D01*
X178546250Y-46863000D01*
X178705000Y-46704250D01*
X178705000Y-46013690D01*
X178641339Y-45860000D01*
X179492776Y-45860000D01*
X179473569Y-45888110D01*
X179422560Y-46140000D01*
X179422560Y-47840000D01*
X179466838Y-48075317D01*
X179605910Y-48291441D01*
X179818110Y-48436431D01*
X180070000Y-48487440D01*
X182070000Y-48487440D01*
X182305317Y-48443162D01*
X182521441Y-48304090D01*
X182666431Y-48091890D01*
X182717440Y-47840000D01*
X182717440Y-47750000D01*
X183042560Y-47750000D01*
X183042560Y-47840000D01*
X183086838Y-48075317D01*
X183225910Y-48291441D01*
X183438110Y-48436431D01*
X183690000Y-48487440D01*
X185690000Y-48487440D01*
X185925317Y-48443162D01*
X186141441Y-48304090D01*
X186286431Y-48091890D01*
X186337440Y-47840000D01*
X186337440Y-46140000D01*
X186293162Y-45904683D01*
X186264409Y-45860000D01*
X187112776Y-45860000D01*
X187093569Y-45888110D01*
X187042560Y-46140000D01*
X187042560Y-47840000D01*
X187086838Y-48075317D01*
X187225910Y-48291441D01*
X187438110Y-48436431D01*
X187690000Y-48487440D01*
X189690000Y-48487440D01*
X189925317Y-48443162D01*
X190141441Y-48304090D01*
X190286431Y-48091890D01*
X190337440Y-47840000D01*
X190337440Y-46140000D01*
X190293162Y-45904683D01*
X190257101Y-45848642D01*
X190490839Y-45802148D01*
X190737401Y-45637401D01*
X197414802Y-38960000D01*
X217485198Y-38960000D01*
X228940000Y-50414802D01*
G36*
X227359908Y-38129908D02*
X226590407Y-39281548D01*
X226320194Y-40640000D01*
X226590407Y-41998452D01*
X227359908Y-43150092D01*
X228511548Y-43919593D01*
X229870000Y-44189806D01*
X231228452Y-43919593D01*
X232380092Y-43150092D01*
X232970000Y-42267232D01*
X232970000Y-74860069D01*
X232914521Y-75138981D01*
X232796145Y-75316144D01*
X232618979Y-75434522D01*
X232340070Y-75490000D01*
X218384803Y-75490000D01*
X218637401Y-75237402D01*
X218716444Y-75119105D01*
X219008285Y-75061054D01*
X219490054Y-74739147D01*
X219710000Y-74409974D01*
X219929946Y-74739147D01*
X220411715Y-75061054D01*
X220980000Y-75174093D01*
X221548285Y-75061054D01*
X222030054Y-74739147D01*
X222250000Y-74409974D01*
X222469946Y-74739147D01*
X222951715Y-75061054D01*
X223520000Y-75174093D01*
X224088285Y-75061054D01*
X224570054Y-74739147D01*
X224790000Y-74409974D01*
X225009946Y-74739147D01*
X225491715Y-75061054D01*
X226060000Y-75174093D01*
X226628285Y-75061054D01*
X227110054Y-74739147D01*
X227330000Y-74409974D01*
X227549946Y-74739147D01*
X228031715Y-75061054D01*
X228600000Y-75174093D01*
X229168285Y-75061054D01*
X229650054Y-74739147D01*
X229877702Y-74398447D01*
X229944817Y-74541358D01*
X230373076Y-74931645D01*
X230783110Y-75101476D01*
X231013000Y-74980155D01*
X231013000Y-73787000D01*
X231267000Y-73787000D01*
X231267000Y-74980155D01*
X231496890Y-75101476D01*
X231906924Y-74931645D01*
X232335183Y-74541358D01*
X232581486Y-74016892D01*
X232460819Y-73787000D01*
X231267000Y-73787000D01*
X231013000Y-73787000D01*
X230993000Y-73787000D01*
X230993000Y-73533000D01*
X231013000Y-73533000D01*
X231013000Y-71247000D01*
X231267000Y-71247000D01*
X231267000Y-73533000D01*
X232460819Y-73533000D01*
X232581486Y-73303108D01*
X232335183Y-72778642D01*
X231908729Y-72390000D01*
X232335183Y-72001358D01*
X232581486Y-71476892D01*
X232460819Y-71247000D01*
X231267000Y-71247000D01*
X231013000Y-71247000D01*
X230993000Y-71247000D01*
X230993000Y-70993000D01*
X231013000Y-70993000D01*
X231013000Y-69799845D01*
X231267000Y-69799845D01*
X231267000Y-70993000D01*
X232460819Y-70993000D01*
X232581486Y-70763108D01*
X232335183Y-70238642D01*
X231906924Y-69848355D01*
X231496890Y-69678524D01*
X231267000Y-69799845D01*
X231013000Y-69799845D01*
X230783110Y-69678524D01*
X230373076Y-69848355D01*
X229944817Y-70238642D01*
X229877702Y-70381553D01*
X229650054Y-70040853D01*
X229168285Y-69718946D01*
X228600000Y-69605907D01*
X228031715Y-69718946D01*
X227549946Y-70040853D01*
X227330000Y-70370026D01*
X227110054Y-70040853D01*
X226628285Y-69718946D01*
X226060000Y-69605907D01*
X225491715Y-69718946D01*
X225009946Y-70040853D01*
X224790000Y-70370026D01*
X224715810Y-70258992D01*
X226814802Y-68160000D01*
X229400000Y-68160000D01*
X229690839Y-68102148D01*
X229937401Y-67937401D01*
X231037401Y-66837401D01*
X231202148Y-66590839D01*
X231260000Y-66300000D01*
X231260000Y-61500000D01*
X231202148Y-61209161D01*
X231037401Y-60962599D01*
X230460000Y-60385198D01*
X230460000Y-50100000D01*
X230426185Y-49930000D01*
X230402148Y-49809160D01*
X230237401Y-49562599D01*
X218337401Y-37662599D01*
X218153918Y-37540000D01*
X228242768Y-37540000D01*
X227359908Y-38129908D01*
X227359908Y-38129908D01*
G37*
X227359908Y-38129908D02*
X226590407Y-39281548D01*
X226320194Y-40640000D01*
X226590407Y-41998452D01*
X227359908Y-43150092D01*
X228511548Y-43919593D01*
X229870000Y-44189806D01*
X231228452Y-43919593D01*
X232380092Y-43150092D01*
X232970000Y-42267232D01*
X232970000Y-74860069D01*
X232914521Y-75138981D01*
X232796145Y-75316144D01*
X232618979Y-75434522D01*
X232340070Y-75490000D01*
X218384803Y-75490000D01*
X218637401Y-75237402D01*
X218716444Y-75119105D01*
X219008285Y-75061054D01*
X219490054Y-74739147D01*
X219710000Y-74409974D01*
X219929946Y-74739147D01*
X220411715Y-75061054D01*
X220980000Y-75174093D01*
X221548285Y-75061054D01*
X222030054Y-74739147D01*
X222250000Y-74409974D01*
X222469946Y-74739147D01*
X222951715Y-75061054D01*
X223520000Y-75174093D01*
X224088285Y-75061054D01*
X224570054Y-74739147D01*
X224790000Y-74409974D01*
X225009946Y-74739147D01*
X225491715Y-75061054D01*
X226060000Y-75174093D01*
X226628285Y-75061054D01*
X227110054Y-74739147D01*
X227330000Y-74409974D01*
X227549946Y-74739147D01*
X228031715Y-75061054D01*
X228600000Y-75174093D01*
X229168285Y-75061054D01*
X229650054Y-74739147D01*
X229877702Y-74398447D01*
X229944817Y-74541358D01*
X230373076Y-74931645D01*
X230783110Y-75101476D01*
X231013000Y-74980155D01*
X231013000Y-73787000D01*
X231267000Y-73787000D01*
X231267000Y-74980155D01*
X231496890Y-75101476D01*
X231906924Y-74931645D01*
X232335183Y-74541358D01*
X232581486Y-74016892D01*
X232460819Y-73787000D01*
X231267000Y-73787000D01*
X231013000Y-73787000D01*
X230993000Y-73787000D01*
X230993000Y-73533000D01*
X231013000Y-73533000D01*
X231013000Y-71247000D01*
X231267000Y-71247000D01*
X231267000Y-73533000D01*
X232460819Y-73533000D01*
X232581486Y-73303108D01*
X232335183Y-72778642D01*
X231908729Y-72390000D01*
X232335183Y-72001358D01*
X232581486Y-71476892D01*
X232460819Y-71247000D01*
X231267000Y-71247000D01*
X231013000Y-71247000D01*
X230993000Y-71247000D01*
X230993000Y-70993000D01*
X231013000Y-70993000D01*
X231013000Y-69799845D01*
X231267000Y-69799845D01*
X231267000Y-70993000D01*
X232460819Y-70993000D01*
X232581486Y-70763108D01*
X232335183Y-70238642D01*
X231906924Y-69848355D01*
X231496890Y-69678524D01*
X231267000Y-69799845D01*
X231013000Y-69799845D01*
X230783110Y-69678524D01*
X230373076Y-69848355D01*
X229944817Y-70238642D01*
X229877702Y-70381553D01*
X229650054Y-70040853D01*
X229168285Y-69718946D01*
X228600000Y-69605907D01*
X228031715Y-69718946D01*
X227549946Y-70040853D01*
X227330000Y-70370026D01*
X227110054Y-70040853D01*
X226628285Y-69718946D01*
X226060000Y-69605907D01*
X225491715Y-69718946D01*
X225009946Y-70040853D01*
X224790000Y-70370026D01*
X224715810Y-70258992D01*
X226814802Y-68160000D01*
X229400000Y-68160000D01*
X229690839Y-68102148D01*
X229937401Y-67937401D01*
X231037401Y-66837401D01*
X231202148Y-66590839D01*
X231260000Y-66300000D01*
X231260000Y-61500000D01*
X231202148Y-61209161D01*
X231037401Y-60962599D01*
X230460000Y-60385198D01*
X230460000Y-50100000D01*
X230426185Y-49930000D01*
X230402148Y-49809160D01*
X230237401Y-49562599D01*
X218337401Y-37662599D01*
X218153918Y-37540000D01*
X228242768Y-37540000D01*
X227359908Y-38129908D01*
G36*
X120180616Y-60935158D02*
X120065162Y-61213201D01*
X120064838Y-61585167D01*
X120206883Y-61928943D01*
X120469673Y-62192192D01*
X120813201Y-62334838D01*
X121185167Y-62335162D01*
X121528943Y-62193117D01*
X121562118Y-62160000D01*
X128700000Y-62160000D01*
X128990839Y-62102148D01*
X129237401Y-61937401D01*
X129489041Y-61685761D01*
X129506883Y-61728943D01*
X129769673Y-61992192D01*
X130113201Y-62134838D01*
X130160076Y-62134879D01*
X130240000Y-62214803D01*
X130240000Y-62737537D01*
X130207808Y-62769673D01*
X130065162Y-63113201D01*
X130064838Y-63485167D01*
X130087494Y-63540000D01*
X107200000Y-63540000D01*
X106909161Y-63597852D01*
X106662599Y-63762599D01*
X104485198Y-65940000D01*
X97500000Y-65940000D01*
X97209161Y-65997852D01*
X96962599Y-66162599D01*
X95062599Y-68062599D01*
X94897852Y-68309161D01*
X94840000Y-68600000D01*
X94840000Y-73285198D01*
X93785198Y-74340000D01*
X81299746Y-74340000D01*
X81451486Y-74016892D01*
X81330819Y-73787000D01*
X80137000Y-73787000D01*
X80137000Y-73807000D01*
X79883000Y-73807000D01*
X79883000Y-73787000D01*
X79863000Y-73787000D01*
X79863000Y-73533000D01*
X79883000Y-73533000D01*
X79883000Y-71247000D01*
X80137000Y-71247000D01*
X80137000Y-73533000D01*
X81330819Y-73533000D01*
X81451486Y-73303108D01*
X81205183Y-72778642D01*
X80778729Y-72390000D01*
X81205183Y-72001358D01*
X81451486Y-71476892D01*
X81330819Y-71247000D01*
X80137000Y-71247000D01*
X79883000Y-71247000D01*
X79863000Y-71247000D01*
X79863000Y-70993000D01*
X79883000Y-70993000D01*
X79883000Y-69799845D01*
X80137000Y-69799845D01*
X80137000Y-70993000D01*
X81330819Y-70993000D01*
X81451486Y-70763108D01*
X81205183Y-70238642D01*
X80776924Y-69848355D01*
X80366890Y-69678524D01*
X80137000Y-69799845D01*
X79883000Y-69799845D01*
X79653110Y-69678524D01*
X79243076Y-69848355D01*
X78814817Y-70238642D01*
X78747702Y-70381553D01*
X78520054Y-70040853D01*
X78038285Y-69718946D01*
X77470000Y-69605907D01*
X76901715Y-69718946D01*
X76419946Y-70040853D01*
X76200000Y-70370026D01*
X75980054Y-70040853D01*
X75498285Y-69718946D01*
X74930000Y-69605907D01*
X74361715Y-69718946D01*
X73879946Y-70040853D01*
X73660000Y-70370026D01*
X73440054Y-70040853D01*
X73150000Y-69847046D01*
X73150000Y-65424802D01*
X77114802Y-61460000D01*
X118337711Y-61460000D01*
X118469673Y-61592192D01*
X118813201Y-61734838D01*
X119185167Y-61735162D01*
X119528943Y-61593117D01*
X119792192Y-61330327D01*
X119934838Y-60986799D01*
X119934883Y-60934944D01*
X120180616Y-60935158D01*
X120180616Y-60935158D01*
G37*
X120180616Y-60935158D02*
X120065162Y-61213201D01*
X120064838Y-61585167D01*
X120206883Y-61928943D01*
X120469673Y-62192192D01*
X120813201Y-62334838D01*
X121185167Y-62335162D01*
X121528943Y-62193117D01*
X121562118Y-62160000D01*
X128700000Y-62160000D01*
X128990839Y-62102148D01*
X129237401Y-61937401D01*
X129489041Y-61685761D01*
X129506883Y-61728943D01*
X129769673Y-61992192D01*
X130113201Y-62134838D01*
X130160076Y-62134879D01*
X130240000Y-62214803D01*
X130240000Y-62737537D01*
X130207808Y-62769673D01*
X130065162Y-63113201D01*
X130064838Y-63485167D01*
X130087494Y-63540000D01*
X107200000Y-63540000D01*
X106909161Y-63597852D01*
X106662599Y-63762599D01*
X104485198Y-65940000D01*
X97500000Y-65940000D01*
X97209161Y-65997852D01*
X96962599Y-66162599D01*
X95062599Y-68062599D01*
X94897852Y-68309161D01*
X94840000Y-68600000D01*
X94840000Y-73285198D01*
X93785198Y-74340000D01*
X81299746Y-74340000D01*
X81451486Y-74016892D01*
X81330819Y-73787000D01*
X80137000Y-73787000D01*
X80137000Y-73807000D01*
X79883000Y-73807000D01*
X79883000Y-73787000D01*
X79863000Y-73787000D01*
X79863000Y-73533000D01*
X79883000Y-73533000D01*
X79883000Y-71247000D01*
X80137000Y-71247000D01*
X80137000Y-73533000D01*
X81330819Y-73533000D01*
X81451486Y-73303108D01*
X81205183Y-72778642D01*
X80778729Y-72390000D01*
X81205183Y-72001358D01*
X81451486Y-71476892D01*
X81330819Y-71247000D01*
X80137000Y-71247000D01*
X79883000Y-71247000D01*
X79863000Y-71247000D01*
X79863000Y-70993000D01*
X79883000Y-70993000D01*
X79883000Y-69799845D01*
X80137000Y-69799845D01*
X80137000Y-70993000D01*
X81330819Y-70993000D01*
X81451486Y-70763108D01*
X81205183Y-70238642D01*
X80776924Y-69848355D01*
X80366890Y-69678524D01*
X80137000Y-69799845D01*
X79883000Y-69799845D01*
X79653110Y-69678524D01*
X79243076Y-69848355D01*
X78814817Y-70238642D01*
X78747702Y-70381553D01*
X78520054Y-70040853D01*
X78038285Y-69718946D01*
X77470000Y-69605907D01*
X76901715Y-69718946D01*
X76419946Y-70040853D01*
X76200000Y-70370026D01*
X75980054Y-70040853D01*
X75498285Y-69718946D01*
X74930000Y-69605907D01*
X74361715Y-69718946D01*
X73879946Y-70040853D01*
X73660000Y-70370026D01*
X73440054Y-70040853D01*
X73150000Y-69847046D01*
X73150000Y-65424802D01*
X77114802Y-61460000D01*
X118337711Y-61460000D01*
X118469673Y-61592192D01*
X118813201Y-61734838D01*
X119185167Y-61735162D01*
X119528943Y-61593117D01*
X119792192Y-61330327D01*
X119934838Y-60986799D01*
X119934883Y-60934944D01*
X120180616Y-60935158D01*
G36*
X138064878Y-47239680D02*
X138064838Y-47285167D01*
X138206883Y-47628943D01*
X138469673Y-47892192D01*
X138813201Y-48034838D01*
X138890293Y-48034905D01*
X138462599Y-48462599D01*
X138297852Y-48709161D01*
X138293337Y-48731861D01*
X133685198Y-53340000D01*
X132800000Y-53340000D01*
X132509161Y-53397852D01*
X132262599Y-53562599D01*
X131462599Y-54362599D01*
X131318375Y-54578446D01*
X131089100Y-54483243D01*
X130533339Y-54482758D01*
X130019697Y-54694990D01*
X129626371Y-55087630D01*
X129540051Y-55295512D01*
X129455010Y-55089697D01*
X129062370Y-54696371D01*
X128549100Y-54483243D01*
X127993339Y-54482758D01*
X127479697Y-54694990D01*
X127086371Y-55087630D01*
X127000051Y-55295512D01*
X126915010Y-55089697D01*
X126522370Y-54696371D01*
X126009100Y-54483243D01*
X125453339Y-54482758D01*
X124939697Y-54694990D01*
X124546371Y-55087630D01*
X124460051Y-55295512D01*
X124375010Y-55089697D01*
X123982370Y-54696371D01*
X123469100Y-54483243D01*
X122913339Y-54482758D01*
X122399697Y-54694990D01*
X122006371Y-55087630D01*
X121793243Y-55600900D01*
X121792758Y-56156661D01*
X122004990Y-56670303D01*
X122397630Y-57063629D01*
X122910900Y-57276757D01*
X123466661Y-57277242D01*
X123980303Y-57065010D01*
X124373629Y-56672370D01*
X124459949Y-56464488D01*
X124544990Y-56670303D01*
X124937630Y-57063629D01*
X125450900Y-57276757D01*
X126006661Y-57277242D01*
X126520303Y-57065010D01*
X126913629Y-56672370D01*
X126999949Y-56464488D01*
X127084990Y-56670303D01*
X127477630Y-57063629D01*
X127640000Y-57131051D01*
X127640000Y-59185198D01*
X126685198Y-60140000D01*
X122462114Y-60140000D01*
X122230327Y-59907808D01*
X121886799Y-59765162D01*
X121514833Y-59764838D01*
X121171057Y-59906883D01*
X120934876Y-60142652D01*
X120935162Y-59814833D01*
X120793117Y-59471057D01*
X120530327Y-59207808D01*
X120186799Y-59065162D01*
X119814833Y-59064838D01*
X119471057Y-59206883D01*
X119337707Y-59340000D01*
X118034966Y-59340000D01*
X118035162Y-59114833D01*
X117893117Y-58771057D01*
X117751907Y-58629601D01*
X117840000Y-58647440D01*
X119840000Y-58647440D01*
X120075317Y-58603162D01*
X120291441Y-58464090D01*
X120436431Y-58251890D01*
X120487440Y-58000000D01*
X120487440Y-56300000D01*
X120443162Y-56064683D01*
X120304090Y-55848559D01*
X120301343Y-55846682D01*
X120378327Y-55769699D01*
X120475000Y-55536310D01*
X120475000Y-54895750D01*
X120316250Y-54737000D01*
X118967000Y-54737000D01*
X118967000Y-54757000D01*
X118713000Y-54757000D01*
X118713000Y-54737000D01*
X118693000Y-54737000D01*
X118693000Y-54483000D01*
X118713000Y-54483000D01*
X118713000Y-52197000D01*
X118967000Y-52197000D01*
X118967000Y-54483000D01*
X120316250Y-54483000D01*
X120475000Y-54324250D01*
X120475000Y-53683690D01*
X120378327Y-53450301D01*
X120268025Y-53340000D01*
X120378327Y-53229699D01*
X120475000Y-52996310D01*
X120475000Y-52355750D01*
X120316250Y-52197000D01*
X118967000Y-52197000D01*
X118713000Y-52197000D01*
X117363750Y-52197000D01*
X117205000Y-52355750D01*
X117205000Y-52996310D01*
X117301673Y-53229699D01*
X117411975Y-53340000D01*
X117301673Y-53450301D01*
X117205000Y-53683690D01*
X117205000Y-53977450D01*
X117100839Y-53907852D01*
X116810000Y-53850000D01*
X116487440Y-53850000D01*
X116487440Y-53810000D01*
X116443162Y-53574683D01*
X116304090Y-53358559D01*
X116279512Y-53341766D01*
X116291441Y-53334090D01*
X116436431Y-53121890D01*
X116487440Y-52870000D01*
X116487440Y-51270000D01*
X116463674Y-51143690D01*
X117205000Y-51143690D01*
X117205000Y-51784250D01*
X117363750Y-51943000D01*
X118713000Y-51943000D01*
X118713000Y-50793750D01*
X118967000Y-50793750D01*
X118967000Y-51943000D01*
X120316250Y-51943000D01*
X120475000Y-51784250D01*
X120475000Y-51143690D01*
X120378327Y-50910301D01*
X120199698Y-50731673D01*
X119966309Y-50635000D01*
X119125750Y-50635000D01*
X118967000Y-50793750D01*
X118713000Y-50793750D01*
X118554250Y-50635000D01*
X117713691Y-50635000D01*
X117480302Y-50731673D01*
X117301673Y-50910301D01*
X117205000Y-51143690D01*
X116463674Y-51143690D01*
X116443162Y-51034683D01*
X116304090Y-50818559D01*
X116091890Y-50673569D01*
X115840000Y-50622560D01*
X113840000Y-50622560D01*
X113604683Y-50666838D01*
X113388559Y-50805910D01*
X113243569Y-51018110D01*
X113192560Y-51270000D01*
X113192560Y-51310000D01*
X111630000Y-51310000D01*
X111339161Y-51367852D01*
X111092599Y-51532599D01*
X110650000Y-51975198D01*
X110260000Y-51585198D01*
X110260000Y-49562463D01*
X110292192Y-49530327D01*
X110434838Y-49186799D01*
X110435162Y-48814833D01*
X110293117Y-48471057D01*
X110282079Y-48460000D01*
X115700000Y-48460000D01*
X115990839Y-48402148D01*
X116237401Y-48237401D01*
X116514802Y-47960000D01*
X116600000Y-47960000D01*
X116890839Y-47902148D01*
X117137401Y-47737401D01*
X118414802Y-46460000D01*
X123167426Y-46460000D01*
X123063243Y-46710900D01*
X123062758Y-47266661D01*
X123274990Y-47780303D01*
X123667630Y-48173629D01*
X123875512Y-48259949D01*
X123669697Y-48344990D01*
X123276371Y-48737630D01*
X123063243Y-49250900D01*
X123062758Y-49806661D01*
X123274990Y-50320303D01*
X123667630Y-50713629D01*
X123875512Y-50799949D01*
X123669697Y-50884990D01*
X123276371Y-51277630D01*
X123063243Y-51790900D01*
X123062758Y-52346661D01*
X123274990Y-52860303D01*
X123667630Y-53253629D01*
X124180900Y-53466757D01*
X124736661Y-53467242D01*
X125250303Y-53255010D01*
X125643629Y-52862370D01*
X125856757Y-52349100D01*
X125857242Y-51793339D01*
X125645010Y-51279697D01*
X125252370Y-50886371D01*
X125044488Y-50800051D01*
X125250303Y-50715010D01*
X125643629Y-50322370D01*
X125856757Y-49809100D01*
X125857242Y-49253339D01*
X125645010Y-48739697D01*
X125252370Y-48346371D01*
X125044488Y-48260051D01*
X125250303Y-48175010D01*
X125643629Y-47782370D01*
X125856757Y-47269100D01*
X125857242Y-46713339D01*
X125733383Y-46413577D01*
X125790839Y-46402148D01*
X126037401Y-46237401D01*
X127114802Y-45160000D01*
X135985198Y-45160000D01*
X138064878Y-47239680D01*
X138064878Y-47239680D01*
G37*
X138064878Y-47239680D02*
X138064838Y-47285167D01*
X138206883Y-47628943D01*
X138469673Y-47892192D01*
X138813201Y-48034838D01*
X138890293Y-48034905D01*
X138462599Y-48462599D01*
X138297852Y-48709161D01*
X138293337Y-48731861D01*
X133685198Y-53340000D01*
X132800000Y-53340000D01*
X132509161Y-53397852D01*
X132262599Y-53562599D01*
X131462599Y-54362599D01*
X131318375Y-54578446D01*
X131089100Y-54483243D01*
X130533339Y-54482758D01*
X130019697Y-54694990D01*
X129626371Y-55087630D01*
X129540051Y-55295512D01*
X129455010Y-55089697D01*
X129062370Y-54696371D01*
X128549100Y-54483243D01*
X127993339Y-54482758D01*
X127479697Y-54694990D01*
X127086371Y-55087630D01*
X127000051Y-55295512D01*
X126915010Y-55089697D01*
X126522370Y-54696371D01*
X126009100Y-54483243D01*
X125453339Y-54482758D01*
X124939697Y-54694990D01*
X124546371Y-55087630D01*
X124460051Y-55295512D01*
X124375010Y-55089697D01*
X123982370Y-54696371D01*
X123469100Y-54483243D01*
X122913339Y-54482758D01*
X122399697Y-54694990D01*
X122006371Y-55087630D01*
X121793243Y-55600900D01*
X121792758Y-56156661D01*
X122004990Y-56670303D01*
X122397630Y-57063629D01*
X122910900Y-57276757D01*
X123466661Y-57277242D01*
X123980303Y-57065010D01*
X124373629Y-56672370D01*
X124459949Y-56464488D01*
X124544990Y-56670303D01*
X124937630Y-57063629D01*
X125450900Y-57276757D01*
X126006661Y-57277242D01*
X126520303Y-57065010D01*
X126913629Y-56672370D01*
X126999949Y-56464488D01*
X127084990Y-56670303D01*
X127477630Y-57063629D01*
X127640000Y-57131051D01*
X127640000Y-59185198D01*
X126685198Y-60140000D01*
X122462114Y-60140000D01*
X122230327Y-59907808D01*
X121886799Y-59765162D01*
X121514833Y-59764838D01*
X121171057Y-59906883D01*
X120934876Y-60142652D01*
X120935162Y-59814833D01*
X120793117Y-59471057D01*
X120530327Y-59207808D01*
X120186799Y-59065162D01*
X119814833Y-59064838D01*
X119471057Y-59206883D01*
X119337707Y-59340000D01*
X118034966Y-59340000D01*
X118035162Y-59114833D01*
X117893117Y-58771057D01*
X117751907Y-58629601D01*
X117840000Y-58647440D01*
X119840000Y-58647440D01*
X120075317Y-58603162D01*
X120291441Y-58464090D01*
X120436431Y-58251890D01*
X120487440Y-58000000D01*
X120487440Y-56300000D01*
X120443162Y-56064683D01*
X120304090Y-55848559D01*
X120301343Y-55846682D01*
X120378327Y-55769699D01*
X120475000Y-55536310D01*
X120475000Y-54895750D01*
X120316250Y-54737000D01*
X118967000Y-54737000D01*
X118967000Y-54757000D01*
X118713000Y-54757000D01*
X118713000Y-54737000D01*
X118693000Y-54737000D01*
X118693000Y-54483000D01*
X118713000Y-54483000D01*
X118713000Y-52197000D01*
X118967000Y-52197000D01*
X118967000Y-54483000D01*
X120316250Y-54483000D01*
X120475000Y-54324250D01*
X120475000Y-53683690D01*
X120378327Y-53450301D01*
X120268025Y-53340000D01*
X120378327Y-53229699D01*
X120475000Y-52996310D01*
X120475000Y-52355750D01*
X120316250Y-52197000D01*
X118967000Y-52197000D01*
X118713000Y-52197000D01*
X117363750Y-52197000D01*
X117205000Y-52355750D01*
X117205000Y-52996310D01*
X117301673Y-53229699D01*
X117411975Y-53340000D01*
X117301673Y-53450301D01*
X117205000Y-53683690D01*
X117205000Y-53977450D01*
X117100839Y-53907852D01*
X116810000Y-53850000D01*
X116487440Y-53850000D01*
X116487440Y-53810000D01*
X116443162Y-53574683D01*
X116304090Y-53358559D01*
X116279512Y-53341766D01*
X116291441Y-53334090D01*
X116436431Y-53121890D01*
X116487440Y-52870000D01*
X116487440Y-51270000D01*
X116463674Y-51143690D01*
X117205000Y-51143690D01*
X117205000Y-51784250D01*
X117363750Y-51943000D01*
X118713000Y-51943000D01*
X118713000Y-50793750D01*
X118967000Y-50793750D01*
X118967000Y-51943000D01*
X120316250Y-51943000D01*
X120475000Y-51784250D01*
X120475000Y-51143690D01*
X120378327Y-50910301D01*
X120199698Y-50731673D01*
X119966309Y-50635000D01*
X119125750Y-50635000D01*
X118967000Y-50793750D01*
X118713000Y-50793750D01*
X118554250Y-50635000D01*
X117713691Y-50635000D01*
X117480302Y-50731673D01*
X117301673Y-50910301D01*
X117205000Y-51143690D01*
X116463674Y-51143690D01*
X116443162Y-51034683D01*
X116304090Y-50818559D01*
X116091890Y-50673569D01*
X115840000Y-50622560D01*
X113840000Y-50622560D01*
X113604683Y-50666838D01*
X113388559Y-50805910D01*
X113243569Y-51018110D01*
X113192560Y-51270000D01*
X113192560Y-51310000D01*
X111630000Y-51310000D01*
X111339161Y-51367852D01*
X111092599Y-51532599D01*
X110650000Y-51975198D01*
X110260000Y-51585198D01*
X110260000Y-49562463D01*
X110292192Y-49530327D01*
X110434838Y-49186799D01*
X110435162Y-48814833D01*
X110293117Y-48471057D01*
X110282079Y-48460000D01*
X115700000Y-48460000D01*
X115990839Y-48402148D01*
X116237401Y-48237401D01*
X116514802Y-47960000D01*
X116600000Y-47960000D01*
X116890839Y-47902148D01*
X117137401Y-47737401D01*
X118414802Y-46460000D01*
X123167426Y-46460000D01*
X123063243Y-46710900D01*
X123062758Y-47266661D01*
X123274990Y-47780303D01*
X123667630Y-48173629D01*
X123875512Y-48259949D01*
X123669697Y-48344990D01*
X123276371Y-48737630D01*
X123063243Y-49250900D01*
X123062758Y-49806661D01*
X123274990Y-50320303D01*
X123667630Y-50713629D01*
X123875512Y-50799949D01*
X123669697Y-50884990D01*
X123276371Y-51277630D01*
X123063243Y-51790900D01*
X123062758Y-52346661D01*
X123274990Y-52860303D01*
X123667630Y-53253629D01*
X124180900Y-53466757D01*
X124736661Y-53467242D01*
X125250303Y-53255010D01*
X125643629Y-52862370D01*
X125856757Y-52349100D01*
X125857242Y-51793339D01*
X125645010Y-51279697D01*
X125252370Y-50886371D01*
X125044488Y-50800051D01*
X125250303Y-50715010D01*
X125643629Y-50322370D01*
X125856757Y-49809100D01*
X125857242Y-49253339D01*
X125645010Y-48739697D01*
X125252370Y-48346371D01*
X125044488Y-48260051D01*
X125250303Y-48175010D01*
X125643629Y-47782370D01*
X125856757Y-47269100D01*
X125857242Y-46713339D01*
X125733383Y-46413577D01*
X125790839Y-46402148D01*
X126037401Y-46237401D01*
X127114802Y-45160000D01*
X135985198Y-45160000D01*
X138064878Y-47239680D01*
G36*
X141169673Y-49492192D02*
X141513201Y-49634838D01*
X141564882Y-49634883D01*
X141564838Y-49685167D01*
X141706883Y-50028943D01*
X141969673Y-50292192D01*
X142313201Y-50434838D01*
X142360076Y-50434879D01*
X142662598Y-50737401D01*
X142784061Y-50818559D01*
X142909161Y-50902148D01*
X143200000Y-50960000D01*
X162385198Y-50960000D01*
X163551377Y-52126179D01*
X163537533Y-52140000D01*
X156800000Y-52140000D01*
X156557414Y-52188254D01*
X156509160Y-52197852D01*
X156262599Y-52362599D01*
X154085371Y-54539827D01*
X153949100Y-54483243D01*
X153393339Y-54482758D01*
X152879697Y-54694990D01*
X152486371Y-55087630D01*
X152400051Y-55295512D01*
X152315010Y-55089697D01*
X151922370Y-54696371D01*
X151409100Y-54483243D01*
X150853339Y-54482758D01*
X150339697Y-54694990D01*
X149946371Y-55087630D01*
X149860051Y-55295512D01*
X149775010Y-55089697D01*
X149382370Y-54696371D01*
X148869100Y-54483243D01*
X148313339Y-54482758D01*
X147799697Y-54694990D01*
X147406371Y-55087630D01*
X147320051Y-55295512D01*
X147235010Y-55089697D01*
X146842370Y-54696371D01*
X146329100Y-54483243D01*
X145773339Y-54482758D01*
X145259697Y-54694990D01*
X144866371Y-55087630D01*
X144780051Y-55295512D01*
X144695010Y-55089697D01*
X144302370Y-54696371D01*
X143789100Y-54483243D01*
X143233339Y-54482758D01*
X142719697Y-54694990D01*
X142326371Y-55087630D01*
X142240051Y-55295512D01*
X142155010Y-55089697D01*
X141762370Y-54696371D01*
X141249100Y-54483243D01*
X140693339Y-54482758D01*
X140460000Y-54579171D01*
X140460000Y-49914802D01*
X141026267Y-49348535D01*
X141169673Y-49492192D01*
X141169673Y-49492192D01*
G37*
X141169673Y-49492192D02*
X141513201Y-49634838D01*
X141564882Y-49634883D01*
X141564838Y-49685167D01*
X141706883Y-50028943D01*
X141969673Y-50292192D01*
X142313201Y-50434838D01*
X142360076Y-50434879D01*
X142662598Y-50737401D01*
X142784061Y-50818559D01*
X142909161Y-50902148D01*
X143200000Y-50960000D01*
X162385198Y-50960000D01*
X163551377Y-52126179D01*
X163537533Y-52140000D01*
X156800000Y-52140000D01*
X156557414Y-52188254D01*
X156509160Y-52197852D01*
X156262599Y-52362599D01*
X154085371Y-54539827D01*
X153949100Y-54483243D01*
X153393339Y-54482758D01*
X152879697Y-54694990D01*
X152486371Y-55087630D01*
X152400051Y-55295512D01*
X152315010Y-55089697D01*
X151922370Y-54696371D01*
X151409100Y-54483243D01*
X150853339Y-54482758D01*
X150339697Y-54694990D01*
X149946371Y-55087630D01*
X149860051Y-55295512D01*
X149775010Y-55089697D01*
X149382370Y-54696371D01*
X148869100Y-54483243D01*
X148313339Y-54482758D01*
X147799697Y-54694990D01*
X147406371Y-55087630D01*
X147320051Y-55295512D01*
X147235010Y-55089697D01*
X146842370Y-54696371D01*
X146329100Y-54483243D01*
X145773339Y-54482758D01*
X145259697Y-54694990D01*
X144866371Y-55087630D01*
X144780051Y-55295512D01*
X144695010Y-55089697D01*
X144302370Y-54696371D01*
X143789100Y-54483243D01*
X143233339Y-54482758D01*
X142719697Y-54694990D01*
X142326371Y-55087630D01*
X142240051Y-55295512D01*
X142155010Y-55089697D01*
X141762370Y-54696371D01*
X141249100Y-54483243D01*
X140693339Y-54482758D01*
X140460000Y-54579171D01*
X140460000Y-49914802D01*
X141026267Y-49348535D01*
X141169673Y-49492192D01*
G36*
X132369777Y-39644579D02*
X132166371Y-39847630D01*
X132080051Y-40055512D01*
X131995010Y-39849697D01*
X131602370Y-39456371D01*
X131089100Y-39243243D01*
X130533339Y-39242758D01*
X130019697Y-39454990D01*
X129626371Y-39847630D01*
X129540051Y-40055512D01*
X129455010Y-39849697D01*
X129062370Y-39456371D01*
X128549100Y-39243243D01*
X127993339Y-39242758D01*
X127479697Y-39454990D01*
X127086371Y-39847630D01*
X127006605Y-40039727D01*
X126952397Y-39908857D01*
X126710213Y-39839392D01*
X125909605Y-40640000D01*
X125923748Y-40654143D01*
X125744143Y-40833748D01*
X125730000Y-40819605D01*
X124929392Y-41620213D01*
X124998857Y-41862397D01*
X125119691Y-41905507D01*
X124785198Y-42240000D01*
X123000000Y-42240000D01*
X122709160Y-42297852D01*
X122462599Y-42462599D01*
X121785198Y-43140000D01*
X117200000Y-43140000D01*
X116909161Y-43197852D01*
X116662599Y-43362599D01*
X115659663Y-44365535D01*
X115451890Y-44223569D01*
X115400854Y-44213234D01*
X115537966Y-44087576D01*
X115791046Y-43544742D01*
X115670997Y-43307000D01*
X114427000Y-43307000D01*
X114427000Y-43327000D01*
X114173000Y-43327000D01*
X114173000Y-43307000D01*
X112929003Y-43307000D01*
X112808954Y-43544742D01*
X113062034Y-44087576D01*
X113196538Y-44210844D01*
X113164683Y-44216838D01*
X112948559Y-44355910D01*
X112803569Y-44568110D01*
X112752560Y-44820000D01*
X112752560Y-46620000D01*
X112796838Y-46855317D01*
X112851330Y-46940000D01*
X110412747Y-46940000D01*
X110434838Y-46886799D01*
X110435162Y-46514833D01*
X110293117Y-46171057D01*
X110260000Y-46137882D01*
X110260000Y-43514802D01*
X112374802Y-41400000D01*
X112977066Y-41400000D01*
X113214591Y-41755481D01*
X113452582Y-41914501D01*
X113062034Y-42272424D01*
X112808954Y-42815258D01*
X112929003Y-43053000D01*
X114173000Y-43053000D01*
X114173000Y-43033000D01*
X114427000Y-43033000D01*
X114427000Y-43053000D01*
X115670997Y-43053000D01*
X115791046Y-42815258D01*
X115537966Y-42272424D01*
X115147418Y-41914501D01*
X115385409Y-41755481D01*
X115718155Y-41257491D01*
X115785950Y-40916661D01*
X121792758Y-40916661D01*
X122004990Y-41430303D01*
X122397630Y-41823629D01*
X122910900Y-42036757D01*
X123466661Y-42037242D01*
X123980303Y-41825010D01*
X124373629Y-41432370D01*
X124453395Y-41240273D01*
X124507603Y-41371143D01*
X124749787Y-41440608D01*
X125550395Y-40640000D01*
X124749787Y-39839392D01*
X124507603Y-39908857D01*
X124457491Y-40049318D01*
X124375010Y-39849697D01*
X124185432Y-39659787D01*
X124929392Y-39659787D01*
X125730000Y-40460395D01*
X126530608Y-39659787D01*
X126461143Y-39417603D01*
X125937698Y-39230856D01*
X125382632Y-39258638D01*
X124998857Y-39417603D01*
X124929392Y-39659787D01*
X124185432Y-39659787D01*
X123982370Y-39456371D01*
X123469100Y-39243243D01*
X122913339Y-39242758D01*
X122399697Y-39454990D01*
X122006371Y-39847630D01*
X121793243Y-40360900D01*
X121792758Y-40916661D01*
X115785950Y-40916661D01*
X115835000Y-40670072D01*
X115835000Y-40609928D01*
X115718155Y-40022509D01*
X115385409Y-39524519D01*
X114887419Y-39191773D01*
X114611739Y-39136937D01*
X114534802Y-39060000D01*
X131785198Y-39060000D01*
X132369777Y-39644579D01*
X132369777Y-39644579D01*
G37*
X132369777Y-39644579D02*
X132166371Y-39847630D01*
X132080051Y-40055512D01*
X131995010Y-39849697D01*
X131602370Y-39456371D01*
X131089100Y-39243243D01*
X130533339Y-39242758D01*
X130019697Y-39454990D01*
X129626371Y-39847630D01*
X129540051Y-40055512D01*
X129455010Y-39849697D01*
X129062370Y-39456371D01*
X128549100Y-39243243D01*
X127993339Y-39242758D01*
X127479697Y-39454990D01*
X127086371Y-39847630D01*
X127006605Y-40039727D01*
X126952397Y-39908857D01*
X126710213Y-39839392D01*
X125909605Y-40640000D01*
X125923748Y-40654143D01*
X125744143Y-40833748D01*
X125730000Y-40819605D01*
X124929392Y-41620213D01*
X124998857Y-41862397D01*
X125119691Y-41905507D01*
X124785198Y-42240000D01*
X123000000Y-42240000D01*
X122709160Y-42297852D01*
X122462599Y-42462599D01*
X121785198Y-43140000D01*
X117200000Y-43140000D01*
X116909161Y-43197852D01*
X116662599Y-43362599D01*
X115659663Y-44365535D01*
X115451890Y-44223569D01*
X115400854Y-44213234D01*
X115537966Y-44087576D01*
X115791046Y-43544742D01*
X115670997Y-43307000D01*
X114427000Y-43307000D01*
X114427000Y-43327000D01*
X114173000Y-43327000D01*
X114173000Y-43307000D01*
X112929003Y-43307000D01*
X112808954Y-43544742D01*
X113062034Y-44087576D01*
X113196538Y-44210844D01*
X113164683Y-44216838D01*
X112948559Y-44355910D01*
X112803569Y-44568110D01*
X112752560Y-44820000D01*
X112752560Y-46620000D01*
X112796838Y-46855317D01*
X112851330Y-46940000D01*
X110412747Y-46940000D01*
X110434838Y-46886799D01*
X110435162Y-46514833D01*
X110293117Y-46171057D01*
X110260000Y-46137882D01*
X110260000Y-43514802D01*
X112374802Y-41400000D01*
X112977066Y-41400000D01*
X113214591Y-41755481D01*
X113452582Y-41914501D01*
X113062034Y-42272424D01*
X112808954Y-42815258D01*
X112929003Y-43053000D01*
X114173000Y-43053000D01*
X114173000Y-43033000D01*
X114427000Y-43033000D01*
X114427000Y-43053000D01*
X115670997Y-43053000D01*
X115791046Y-42815258D01*
X115537966Y-42272424D01*
X115147418Y-41914501D01*
X115385409Y-41755481D01*
X115718155Y-41257491D01*
X115785950Y-40916661D01*
X121792758Y-40916661D01*
X122004990Y-41430303D01*
X122397630Y-41823629D01*
X122910900Y-42036757D01*
X123466661Y-42037242D01*
X123980303Y-41825010D01*
X124373629Y-41432370D01*
X124453395Y-41240273D01*
X124507603Y-41371143D01*
X124749787Y-41440608D01*
X125550395Y-40640000D01*
X124749787Y-39839392D01*
X124507603Y-39908857D01*
X124457491Y-40049318D01*
X124375010Y-39849697D01*
X124185432Y-39659787D01*
X124929392Y-39659787D01*
X125730000Y-40460395D01*
X126530608Y-39659787D01*
X126461143Y-39417603D01*
X125937698Y-39230856D01*
X125382632Y-39258638D01*
X124998857Y-39417603D01*
X124929392Y-39659787D01*
X124185432Y-39659787D01*
X123982370Y-39456371D01*
X123469100Y-39243243D01*
X122913339Y-39242758D01*
X122399697Y-39454990D01*
X122006371Y-39847630D01*
X121793243Y-40360900D01*
X121792758Y-40916661D01*
X115785950Y-40916661D01*
X115835000Y-40670072D01*
X115835000Y-40609928D01*
X115718155Y-40022509D01*
X115385409Y-39524519D01*
X114887419Y-39191773D01*
X114611739Y-39136937D01*
X114534802Y-39060000D01*
X131785198Y-39060000D01*
X132369777Y-39644579D01*
G36*
X196562599Y-37662599D02*
X190337440Y-43887758D01*
X190337440Y-42330000D01*
X190293162Y-42094683D01*
X190154090Y-41878559D01*
X189941890Y-41733569D01*
X189690000Y-41682560D01*
X187690000Y-41682560D01*
X187454683Y-41726838D01*
X187238559Y-41865910D01*
X187093569Y-42078110D01*
X187042560Y-42330000D01*
X187042560Y-44030000D01*
X187086838Y-44265317D01*
X187134895Y-44340000D01*
X186246726Y-44340000D01*
X186286431Y-44281890D01*
X186337440Y-44030000D01*
X186337440Y-42330000D01*
X186293162Y-42094683D01*
X186154090Y-41878559D01*
X185941890Y-41733569D01*
X185690000Y-41682560D01*
X183690000Y-41682560D01*
X183454683Y-41726838D01*
X183238559Y-41865910D01*
X183093569Y-42078110D01*
X183042560Y-42330000D01*
X183042560Y-42420000D01*
X182717440Y-42420000D01*
X182717440Y-42330000D01*
X182673162Y-42094683D01*
X182534090Y-41878559D01*
X182321890Y-41733569D01*
X182070000Y-41682560D01*
X180070000Y-41682560D01*
X179834683Y-41726838D01*
X179618559Y-41865910D01*
X179473569Y-42078110D01*
X179422560Y-42330000D01*
X179422560Y-44030000D01*
X179466838Y-44265317D01*
X179514895Y-44340000D01*
X178662114Y-44340000D01*
X178638649Y-44316494D01*
X178705000Y-44156310D01*
X178705000Y-43465750D01*
X178546250Y-43307000D01*
X177197000Y-43307000D01*
X177197000Y-43327000D01*
X176943000Y-43327000D01*
X176943000Y-43307000D01*
X176923000Y-43307000D01*
X176923000Y-43053000D01*
X176943000Y-43053000D01*
X176943000Y-41853750D01*
X177197000Y-41853750D01*
X177197000Y-43053000D01*
X178546250Y-43053000D01*
X178705000Y-42894250D01*
X178705000Y-42203690D01*
X178608327Y-41970301D01*
X178429698Y-41791673D01*
X178196309Y-41695000D01*
X177355750Y-41695000D01*
X177197000Y-41853750D01*
X176943000Y-41853750D01*
X176784250Y-41695000D01*
X175943691Y-41695000D01*
X175710302Y-41791673D01*
X175531673Y-41970301D01*
X175435000Y-42203690D01*
X175435000Y-42894250D01*
X175593748Y-43052998D01*
X175526974Y-43052998D01*
X175493117Y-42971057D01*
X175230327Y-42707808D01*
X174886799Y-42565162D01*
X174514833Y-42564838D01*
X174171057Y-42706883D01*
X174137882Y-42740000D01*
X173134879Y-42740000D01*
X173135162Y-42414833D01*
X172993117Y-42071057D01*
X172730327Y-41807808D01*
X172396426Y-41669159D01*
X172633629Y-41432370D01*
X172846757Y-40919100D01*
X172847242Y-40363339D01*
X172635010Y-39849697D01*
X172441402Y-39655750D01*
X175435000Y-39655750D01*
X175435000Y-40346310D01*
X175531673Y-40579699D01*
X175710302Y-40758327D01*
X175943691Y-40855000D01*
X176784250Y-40855000D01*
X176943000Y-40696250D01*
X176943000Y-39497000D01*
X177197000Y-39497000D01*
X177197000Y-40696250D01*
X177355750Y-40855000D01*
X178196309Y-40855000D01*
X178429698Y-40758327D01*
X178608327Y-40579699D01*
X178705000Y-40346310D01*
X178705000Y-39655750D01*
X178546250Y-39497000D01*
X177197000Y-39497000D01*
X176943000Y-39497000D01*
X175593750Y-39497000D01*
X175435000Y-39655750D01*
X172441402Y-39655750D01*
X172242370Y-39456371D01*
X171730838Y-39243964D01*
X172514802Y-38460000D01*
X175435000Y-38460000D01*
X175435000Y-39084250D01*
X175593750Y-39243000D01*
X176943000Y-39243000D01*
X176943000Y-39223000D01*
X177197000Y-39223000D01*
X177197000Y-39243000D01*
X178546250Y-39243000D01*
X178705000Y-39084250D01*
X178705000Y-38520000D01*
X179422560Y-38520000D01*
X179422560Y-40220000D01*
X179466838Y-40455317D01*
X179605910Y-40671441D01*
X179818110Y-40816431D01*
X180070000Y-40867440D01*
X182070000Y-40867440D01*
X182305317Y-40823162D01*
X182521441Y-40684090D01*
X182666431Y-40471890D01*
X182717440Y-40220000D01*
X182717440Y-40130000D01*
X183042560Y-40130000D01*
X183042560Y-40220000D01*
X183086838Y-40455317D01*
X183225910Y-40671441D01*
X183438110Y-40816431D01*
X183690000Y-40867440D01*
X185690000Y-40867440D01*
X185925317Y-40823162D01*
X186141441Y-40684090D01*
X186286431Y-40471890D01*
X186337440Y-40220000D01*
X186337440Y-38520000D01*
X187042560Y-38520000D01*
X187042560Y-40220000D01*
X187086838Y-40455317D01*
X187225910Y-40671441D01*
X187438110Y-40816431D01*
X187690000Y-40867440D01*
X189690000Y-40867440D01*
X189925317Y-40823162D01*
X190141441Y-40684090D01*
X190286431Y-40471890D01*
X190337440Y-40220000D01*
X190337440Y-38520000D01*
X190293162Y-38284683D01*
X190154090Y-38068559D01*
X189941890Y-37923569D01*
X189690000Y-37872560D01*
X187690000Y-37872560D01*
X187454683Y-37916838D01*
X187238559Y-38055910D01*
X187093569Y-38268110D01*
X187042560Y-38520000D01*
X186337440Y-38520000D01*
X186293162Y-38284683D01*
X186154090Y-38068559D01*
X185941890Y-37923569D01*
X185690000Y-37872560D01*
X183690000Y-37872560D01*
X183454683Y-37916838D01*
X183238559Y-38055910D01*
X183093569Y-38268110D01*
X183042560Y-38520000D01*
X183042560Y-38610000D01*
X182717440Y-38610000D01*
X182717440Y-38520000D01*
X182673162Y-38284683D01*
X182534090Y-38068559D01*
X182321890Y-37923569D01*
X182070000Y-37872560D01*
X180070000Y-37872560D01*
X179834683Y-37916838D01*
X179618559Y-38055910D01*
X179473569Y-38268110D01*
X179422560Y-38520000D01*
X178705000Y-38520000D01*
X178705000Y-38393690D01*
X178608327Y-38160301D01*
X178429698Y-37981673D01*
X178196309Y-37885000D01*
X177534840Y-37885000D01*
X177535140Y-37540000D01*
X196746082Y-37540000D01*
X196562599Y-37662599D01*
X196562599Y-37662599D01*
G37*
X196562599Y-37662599D02*
X190337440Y-43887758D01*
X190337440Y-42330000D01*
X190293162Y-42094683D01*
X190154090Y-41878559D01*
X189941890Y-41733569D01*
X189690000Y-41682560D01*
X187690000Y-41682560D01*
X187454683Y-41726838D01*
X187238559Y-41865910D01*
X187093569Y-42078110D01*
X187042560Y-42330000D01*
X187042560Y-44030000D01*
X187086838Y-44265317D01*
X187134895Y-44340000D01*
X186246726Y-44340000D01*
X186286431Y-44281890D01*
X186337440Y-44030000D01*
X186337440Y-42330000D01*
X186293162Y-42094683D01*
X186154090Y-41878559D01*
X185941890Y-41733569D01*
X185690000Y-41682560D01*
X183690000Y-41682560D01*
X183454683Y-41726838D01*
X183238559Y-41865910D01*
X183093569Y-42078110D01*
X183042560Y-42330000D01*
X183042560Y-42420000D01*
X182717440Y-42420000D01*
X182717440Y-42330000D01*
X182673162Y-42094683D01*
X182534090Y-41878559D01*
X182321890Y-41733569D01*
X182070000Y-41682560D01*
X180070000Y-41682560D01*
X179834683Y-41726838D01*
X179618559Y-41865910D01*
X179473569Y-42078110D01*
X179422560Y-42330000D01*
X179422560Y-44030000D01*
X179466838Y-44265317D01*
X179514895Y-44340000D01*
X178662114Y-44340000D01*
X178638649Y-44316494D01*
X178705000Y-44156310D01*
X178705000Y-43465750D01*
X178546250Y-43307000D01*
X177197000Y-43307000D01*
X177197000Y-43327000D01*
X176943000Y-43327000D01*
X176943000Y-43307000D01*
X176923000Y-43307000D01*
X176923000Y-43053000D01*
X176943000Y-43053000D01*
X176943000Y-41853750D01*
X177197000Y-41853750D01*
X177197000Y-43053000D01*
X178546250Y-43053000D01*
X178705000Y-42894250D01*
X178705000Y-42203690D01*
X178608327Y-41970301D01*
X178429698Y-41791673D01*
X178196309Y-41695000D01*
X177355750Y-41695000D01*
X177197000Y-41853750D01*
X176943000Y-41853750D01*
X176784250Y-41695000D01*
X175943691Y-41695000D01*
X175710302Y-41791673D01*
X175531673Y-41970301D01*
X175435000Y-42203690D01*
X175435000Y-42894250D01*
X175593748Y-43052998D01*
X175526974Y-43052998D01*
X175493117Y-42971057D01*
X175230327Y-42707808D01*
X174886799Y-42565162D01*
X174514833Y-42564838D01*
X174171057Y-42706883D01*
X174137882Y-42740000D01*
X173134879Y-42740000D01*
X173135162Y-42414833D01*
X172993117Y-42071057D01*
X172730327Y-41807808D01*
X172396426Y-41669159D01*
X172633629Y-41432370D01*
X172846757Y-40919100D01*
X172847242Y-40363339D01*
X172635010Y-39849697D01*
X172441402Y-39655750D01*
X175435000Y-39655750D01*
X175435000Y-40346310D01*
X175531673Y-40579699D01*
X175710302Y-40758327D01*
X175943691Y-40855000D01*
X176784250Y-40855000D01*
X176943000Y-40696250D01*
X176943000Y-39497000D01*
X177197000Y-39497000D01*
X177197000Y-40696250D01*
X177355750Y-40855000D01*
X178196309Y-40855000D01*
X178429698Y-40758327D01*
X178608327Y-40579699D01*
X178705000Y-40346310D01*
X178705000Y-39655750D01*
X178546250Y-39497000D01*
X177197000Y-39497000D01*
X176943000Y-39497000D01*
X175593750Y-39497000D01*
X175435000Y-39655750D01*
X172441402Y-39655750D01*
X172242370Y-39456371D01*
X171730838Y-39243964D01*
X172514802Y-38460000D01*
X175435000Y-38460000D01*
X175435000Y-39084250D01*
X175593750Y-39243000D01*
X176943000Y-39243000D01*
X176943000Y-39223000D01*
X177197000Y-39223000D01*
X177197000Y-39243000D01*
X178546250Y-39243000D01*
X178705000Y-39084250D01*
X178705000Y-38520000D01*
X179422560Y-38520000D01*
X179422560Y-40220000D01*
X179466838Y-40455317D01*
X179605910Y-40671441D01*
X179818110Y-40816431D01*
X180070000Y-40867440D01*
X182070000Y-40867440D01*
X182305317Y-40823162D01*
X182521441Y-40684090D01*
X182666431Y-40471890D01*
X182717440Y-40220000D01*
X182717440Y-40130000D01*
X183042560Y-40130000D01*
X183042560Y-40220000D01*
X183086838Y-40455317D01*
X183225910Y-40671441D01*
X183438110Y-40816431D01*
X183690000Y-40867440D01*
X185690000Y-40867440D01*
X185925317Y-40823162D01*
X186141441Y-40684090D01*
X186286431Y-40471890D01*
X186337440Y-40220000D01*
X186337440Y-38520000D01*
X187042560Y-38520000D01*
X187042560Y-40220000D01*
X187086838Y-40455317D01*
X187225910Y-40671441D01*
X187438110Y-40816431D01*
X187690000Y-40867440D01*
X189690000Y-40867440D01*
X189925317Y-40823162D01*
X190141441Y-40684090D01*
X190286431Y-40471890D01*
X190337440Y-40220000D01*
X190337440Y-38520000D01*
X190293162Y-38284683D01*
X190154090Y-38068559D01*
X189941890Y-37923569D01*
X189690000Y-37872560D01*
X187690000Y-37872560D01*
X187454683Y-37916838D01*
X187238559Y-38055910D01*
X187093569Y-38268110D01*
X187042560Y-38520000D01*
X186337440Y-38520000D01*
X186293162Y-38284683D01*
X186154090Y-38068559D01*
X185941890Y-37923569D01*
X185690000Y-37872560D01*
X183690000Y-37872560D01*
X183454683Y-37916838D01*
X183238559Y-38055910D01*
X183093569Y-38268110D01*
X183042560Y-38520000D01*
X183042560Y-38610000D01*
X182717440Y-38610000D01*
X182717440Y-38520000D01*
X182673162Y-38284683D01*
X182534090Y-38068559D01*
X182321890Y-37923569D01*
X182070000Y-37872560D01*
X180070000Y-37872560D01*
X179834683Y-37916838D01*
X179618559Y-38055910D01*
X179473569Y-38268110D01*
X179422560Y-38520000D01*
X178705000Y-38520000D01*
X178705000Y-38393690D01*
X178608327Y-38160301D01*
X178429698Y-37981673D01*
X178196309Y-37885000D01*
X177534840Y-37885000D01*
X177535140Y-37540000D01*
X196746082Y-37540000D01*
X196562599Y-37662599D01*
M02*
